<svg width="238" height="24" viewBox="0 0 238 24" fill="none" xmlns="http://www.w3.org/2000/svg">
<path d="M36.7732 21.6522C35.9478 21.557 35.1541 21.2788 34.4499 20.838C33.5338 20.2549 32.7754 19.4555 32.2414 18.5103C31.6694 17.5066 31.259 16.4193 31.0253 15.2881C30.5052 12.9352 30.5052 10.4972 31.0253 8.14434C31.2574 7.02976 31.6619 5.95813 32.2242 4.96805C32.7475 4.03903 33.4899 3.25178 34.3868 2.67471C35.1079 2.22118 35.9251 1.94239 36.7732 1.86058V0.582031C35.0853 0.678493 33.4432 1.16732 31.9775 2.00963C30.344 2.9592 29.0118 4.35031 28.1342 6.02299C27.2082 7.84153 26.7433 9.85955 26.7804 11.8997C26.7448 13.8669 27.1836 15.8138 28.0596 17.5757C28.8777 19.2069 30.1482 20.5683 31.7194 21.4974C33.261 22.3775 34.9982 22.8584 36.7732 22.8963V21.6522Z" fill="black"/>
<path d="M47.3797 5.87368C46.5482 4.2542 45.2754 2.90265 43.7084 1.97498C42.1779 1.09266 40.4498 0.609602 38.6833 0.570312V1.86604C39.5562 1.93238 40.4003 2.20771 41.1442 2.66873C42.0414 3.2402 42.7794 4.02909 43.2897 4.96207C43.8536 5.97322 44.2562 7.06616 44.4828 8.20142C44.9646 10.6047 44.9646 13.0795 44.4828 15.4828C44.2749 16.5912 43.8874 17.6582 43.3356 18.6419C42.828 19.5519 42.1027 20.3221 41.2246 20.8836C40.4527 21.3461 39.5814 21.6173 38.6833 21.6748V22.9075C40.3761 22.8179 42.0234 22.3287 43.4904 21.4799C45.1184 20.5269 46.446 19.1364 47.3223 17.4665C48.2542 15.644 48.7193 13.6189 48.6761 11.5726C48.7158 9.59571 48.2707 7.63912 47.3797 5.87368Z" fill="black"/>
<path d="M61.0548 21.2571C60.8686 21.2241 60.6956 21.1385 60.5564 21.0105C60.4172 20.8826 60.3174 20.7175 60.269 20.5347C60.1438 19.92 60.0918 19.2926 60.1141 18.6656V4.33222C60.0905 3.80197 60.1426 3.27107 60.269 2.75554C60.3317 2.5947 60.4358 2.45326 60.5708 2.34554C60.7058 2.23782 60.8668 2.16763 61.0377 2.14207C61.7112 2.00238 62.3935 1.90853 63.0798 1.86114C63.1368 1.53489 63.1368 1.20125 63.0798 0.875H61.5826L59.8617 0.90366H58.4276H56.9763L55.1693 0.875H53.6434C53.6032 1.20248 53.6032 1.53366 53.6434 1.86114C54.3589 1.90786 55.0701 2.00557 55.7716 2.15353C55.9604 2.18728 56.1358 2.27349 56.2779 2.40226C56.4199 2.53104 56.5228 2.69718 56.5747 2.88168C56.701 3.49045 56.753 4.11226 56.7296 4.73354V19.067C56.7537 19.5953 56.7015 20.1244 56.5747 20.6379C56.5097 20.8027 56.4002 20.9462 56.2584 21.0525C56.1166 21.1587 55.9481 21.2236 55.7716 21.2399C55.0679 21.376 54.3575 21.4755 53.6434 21.538C53.6032 21.8655 53.6032 22.1967 53.6434 22.5242H55.1693H56.8902H58.3415H59.8101H61.5711H63.0683C63.1253 22.1979 63.1253 21.8643 63.0683 21.538C62.3918 21.4883 61.7192 21.3944 61.0548 21.2571Z" fill="black"/>
<path d="M76.148 21.5373C75.4883 21.4742 74.9491 21.3997 74.5303 21.3194C74.1422 21.2523 73.7692 21.1164 73.429 20.9181C73.0625 20.682 72.7337 20.3921 72.4538 20.0581C72.1268 19.6739 71.7138 19.1637 71.2205 18.5273L64.8645 10.168L69.4135 5.438C70.1324 4.69648 70.729 4.10022 71.2032 3.64919C71.5963 3.26069 72.0245 2.90944 72.4824 2.59997C72.851 2.35688 73.2584 2.1785 73.6871 2.07251C74.2106 1.95444 74.7414 1.87208 75.2761 1.82598C75.3162 1.4985 75.3162 1.16733 75.2761 0.839844C74.5762 0.839844 73.9337 0.839837 73.3486 0.868504C72.7635 0.89717 72.1383 0.902902 71.4786 0.902902H70.1822L68.576 0.874243H67.2509C67.2106 1.20173 67.2106 1.5329 67.2509 1.86038C67.8643 1.88681 68.4736 1.97517 69.0693 2.12411C69.4422 2.23878 69.643 2.42798 69.643 2.69745C69.643 2.96692 69.2529 3.58039 68.4957 4.41746L61.8701 11.4408L70.0789 22.4948H71.0426H71.9203H73.2511H74.8229H76.2111C76.2499 22.1745 76.2285 21.8497 76.148 21.5373Z" fill="black"/>
<path d="M129.451 16.9683C129.135 17.6516 128.762 18.3075 128.338 18.9291C128.065 19.3681 127.733 19.7674 127.351 20.1159C126.895 20.489 126.362 20.7572 125.791 20.9014C124.978 21.0993 124.143 21.188 123.307 21.1651H119.079C119.046 20.8932 119.03 20.6193 119.033 20.3453C119.033 19.9267 119.033 19.3649 119.033 18.6654V14.5202V9.02761V2.18769H123.077C123.757 2.17461 124.436 2.24782 125.097 2.40556C125.602 2.53094 126.079 2.75077 126.502 3.05343C126.901 3.35271 127.246 3.71713 127.523 4.13131C127.87 4.64418 128.159 5.19416 128.384 5.77104C128.723 5.81118 129.066 5.81118 129.405 5.77104C129.261 4.86517 129.129 4.0109 129.02 3.20823C128.911 2.40555 128.808 1.62582 128.728 0.863281H127.058L123.508 0.891959C122.091 0.891959 120.565 0.891959 118.919 0.891959C118.029 0.891959 117.301 0.891959 116.727 0.891959H115.242C114.834 0.891959 114.427 0.891959 114.025 0.891959C113.624 0.891959 113.153 0.891959 112.62 0.891959C112.58 1.21944 112.58 1.55061 112.62 1.8781C113.311 1.92607 113.997 2.02378 114.674 2.17049C114.859 2.20716 115.031 2.29467 115.17 2.42325C115.309 2.55182 115.409 2.71641 115.46 2.89864C115.586 3.50741 115.638 4.12922 115.614 4.7505V19.0839C115.636 19.6084 115.584 20.1334 115.46 20.6434C115.4 20.807 115.295 20.9509 115.159 21.0592C115.022 21.1674 114.858 21.2358 114.685 21.2569C114.003 21.3947 113.313 21.4942 112.62 21.555C112.58 21.8825 112.58 22.2137 112.62 22.5411C113.194 22.5411 113.687 22.5411 114.146 22.5411H115.752C116.36 22.5411 117.146 22.5411 118.115 22.5411H120.261H123.238C124.328 22.5411 125.418 22.5411 126.514 22.5411H129.537C129.64 21.8646 129.76 21.0619 129.909 20.1389C130.059 19.2158 130.225 18.1723 130.431 17.0199C130.108 16.9606 129.778 16.9432 129.451 16.9683Z" fill="black"/>
<path d="M125.716 7.31298C125.369 7.24984 125.013 7.24984 124.666 7.31298C124.595 8.07299 124.402 8.81648 124.093 9.51459C123.977 9.73805 123.815 9.93408 123.617 10.0894C123.419 10.2447 123.19 10.3557 122.945 10.4147C122.261 10.5715 121.559 10.6389 120.857 10.6154V11.9685H120.989C121.679 11.949 122.369 12.0125 123.043 12.1577C123.28 12.2164 123.502 12.3271 123.691 12.4817C123.881 12.6364 124.034 12.8312 124.139 13.0521C124.463 13.7951 124.657 14.5883 124.712 15.397C125.06 15.4546 125.414 15.4546 125.762 15.397C125.762 14.3478 125.728 13.4878 125.716 12.817C125.705 12.1462 125.716 11.6703 125.716 11.3206C125.716 10.9709 125.716 10.6039 125.716 10.0249C125.716 9.44579 125.693 8.54565 125.716 7.31298Z" fill="black"/>
<path d="M210.528 16.9683C210.212 17.6503 209.842 18.306 209.421 18.9291C209.136 19.369 208.793 19.7682 208.4 20.1159C207.944 20.489 207.411 20.7572 206.84 20.9014C206.027 21.0993 205.192 21.188 204.356 21.1651H200.128C200.095 20.8932 200.08 20.6193 200.082 20.3453C200.082 19.9267 200.082 19.3649 200.082 18.6654V14.5202V9.02761V2.18769H204.098C204.778 2.17461 205.456 2.24782 206.117 2.40556C206.622 2.53094 207.099 2.75077 207.523 3.05343C207.921 3.35271 208.266 3.71713 208.544 4.13131C208.89 4.64525 209.181 5.19499 209.41 5.77104C209.747 5.81121 210.088 5.81121 210.425 5.77104C210.282 4.86517 210.156 4.0109 210.041 3.20823C209.926 2.40555 209.829 1.62582 209.748 0.863281H208.079L204.528 0.891959C203.111 0.891959 201.585 0.891959 199.939 0.891959C199.056 0.891959 198.321 0.891959 197.748 0.891959H196.262C195.855 0.891959 195.447 0.891959 195.046 0.891959C194.644 0.891959 194.174 0.891959 193.641 0.891959C193.6 1.21944 193.6 1.55061 193.641 1.8781C194.331 1.92607 195.018 2.02378 195.694 2.17049C195.88 2.20716 196.052 2.29467 196.19 2.42325C196.329 2.55182 196.429 2.71641 196.48 2.89864C196.606 3.50741 196.658 4.12922 196.635 4.7505V19.0839C196.657 19.6084 196.605 20.1334 196.48 20.6434C196.42 20.8062 196.317 20.9496 196.182 21.0578C196.046 21.166 195.883 21.2348 195.711 21.2569C195.027 21.3941 194.336 21.4936 193.641 21.555C193.6 21.8825 193.6 22.2137 193.641 22.5411C194.214 22.5411 194.707 22.5411 195.166 22.5411H196.773C197.381 22.5411 198.167 22.5411 199.136 22.5411H201.281H204.259C205.348 22.5411 206.438 22.5411 207.534 22.5411H210.557C210.66 21.8646 210.781 21.0619 210.93 20.1389C211.079 19.2158 211.245 18.1723 211.452 17.0199C211.147 16.9654 210.837 16.9481 210.528 16.9683Z" fill="black"/>
<path d="M206.765 7.31298C206.418 7.24984 206.063 7.24984 205.716 7.31298C205.645 8.07299 205.451 8.81648 205.142 9.51459C205.026 9.73805 204.864 9.93408 204.666 10.0894C204.468 10.2447 204.239 10.3557 203.995 10.4147C203.3 10.5711 202.589 10.6385 201.878 10.6154V11.9685H202.044C202.734 11.9485 203.424 12.012 204.098 12.1577C204.335 12.2164 204.557 12.3271 204.746 12.4817C204.936 12.6364 205.089 12.8312 205.194 13.0521C205.518 13.7951 205.712 14.5883 205.767 15.397C206.115 15.4546 206.469 15.4546 206.817 15.397C206.817 14.3478 206.783 13.4878 206.771 12.817C206.76 12.1462 206.771 11.6703 206.771 11.3206C206.771 10.9709 206.771 10.6039 206.771 10.0249C206.771 9.44579 206.748 8.54565 206.765 7.31298Z" fill="black"/>
<path d="M237.271 16.108C236.996 17.937 236.783 19.8003 236.646 21.6924C235.366 22.0249 234.07 22.3288 232.745 22.5982C231.345 22.8739 229.921 23.0084 228.494 22.9996C226.184 23.0574 223.891 22.5888 221.788 21.6293C219.984 20.7893 218.455 19.4529 217.383 17.7765C216.309 16.0181 215.766 13.9877 215.817 11.9284C215.784 9.81875 216.336 7.74112 217.412 5.9256C218.468 4.17568 220.002 2.76348 221.834 1.8549C223.925 0.833602 226.231 0.330182 228.557 0.387163C229.396 0.379782 230.233 0.431504 231.064 0.541958C231.787 0.650892 232.653 0.805697 233.68 1.0121C234.145 1.0981 234.546 1.17837 234.896 1.26437C235.25 1.34496 235.612 1.38534 235.974 1.38476H236.359C236.477 1.37659 236.594 1.35934 236.709 1.33317C236.755 2.2505 236.801 3.19652 236.846 4.17119C236.892 5.1516 236.961 6.17213 237.059 7.23281C236.665 7.28889 236.268 7.30808 235.871 7.29014C234.965 3.52905 232.584 1.64851 228.729 1.64851C227.36 1.60856 226 1.89137 224.76 2.4741C223.706 2.99369 222.798 3.76581 222.115 4.72159C221.431 5.6846 220.935 6.76807 220.653 7.91508C220.346 9.12954 220.194 10.3778 220.199 11.6303C220.179 13.3562 220.486 15.0703 221.106 16.6814C221.671 18.1679 222.67 19.4503 223.974 20.3622C225.461 21.3316 227.214 21.8108 228.988 21.7325C230.629 21.8149 232.249 21.3312 233.577 20.3622C234.85 19.2468 235.726 17.7476 236.072 16.0908H236.646C236.823 16.0794 237.041 16.0908 237.271 16.108Z" fill="black"/>
<path d="M148.575 0.438477L156.095 18.2119C156.329 18.7979 156.591 19.3719 156.881 19.9319C157.056 20.286 157.298 20.6033 157.593 20.8665C157.884 21.0857 158.225 21.2295 158.585 21.285C158.992 21.3595 159.532 21.4283 160.208 21.4914C160.277 21.8204 160.277 22.16 160.208 22.489C159.394 22.489 158.539 22.4775 157.644 22.4546C156.755 22.4546 155.889 22.4259 155.051 22.4259H153.29L151.306 22.4603H149.55C149.481 22.1314 149.481 21.7917 149.55 21.4627C150.416 21.4252 151.277 21.3197 152.126 21.1474C152.613 21.0213 152.86 20.7747 152.86 20.4021C152.855 20.2047 152.812 20.01 152.734 19.8287C152.654 19.6109 152.556 19.3586 152.441 19.0662L146.493 4.86464L140.676 18.5903C140.515 18.9725 140.389 19.3108 140.297 19.6051C140.212 19.829 140.164 20.0652 140.154 20.3046C140.155 20.509 140.227 20.7068 140.357 20.8638C140.488 21.0208 140.67 21.1272 140.871 21.1646C141.743 21.3778 142.635 21.4988 143.533 21.5258C143.602 21.8548 143.602 22.1944 143.533 22.5234H142.001L139.982 22.489H138.45C137.705 22.489 137.039 22.489 136.448 22.5177C135.857 22.5463 135.198 22.5521 134.481 22.5521C134.406 22.2237 134.406 21.8828 134.481 21.5545C135.154 21.4895 135.705 21.4264 136.133 21.3653C136.525 21.3161 136.9 21.1768 137.228 20.9582C137.582 20.6977 137.873 20.363 138.083 19.9778C138.43 19.369 138.739 18.739 139.007 18.0915L146.705 0.719406C147.018 0.626229 147.338 0.562887 147.663 0.530213C147.965 0.483458 148.27 0.452835 148.575 0.438477Z" fill="black"/>
<path d="M163.083 22.5237C163.009 22.1953 163.009 21.8544 163.083 21.5261C163.853 21.4773 164.619 21.3835 165.378 21.2451C165.571 21.2236 165.755 21.1533 165.914 21.041C166.072 20.9287 166.2 20.778 166.284 20.603C166.439 20.0924 166.504 19.5591 166.479 19.0263V4.52663C166.503 3.89657 166.444 3.26608 166.301 2.65182C166.23 2.45968 166.108 2.29023 165.948 2.16116C165.789 2.03209 165.598 1.94809 165.395 1.91794C164.615 1.76792 163.825 1.67024 163.032 1.62555C162.957 1.29719 162.957 0.956288 163.032 0.62793H164.752L166.789 0.662346H168.429H170.047L172.066 0.62793H173.724C173.793 0.956906 173.793 1.29657 173.724 1.62555C172.941 1.67148 172.161 1.7653 171.389 1.90648C171.196 1.92309 171.01 1.99073 170.85 2.10251C170.691 2.2143 170.564 2.36625 170.483 2.54289C170.345 3.05644 170.287 3.58828 170.311 4.11957V10.2657H182.845V4.53237C182.871 3.90258 182.813 3.27217 182.673 2.65755C182.608 2.46737 182.493 2.29846 182.339 2.1691C182.186 2.03975 181.999 1.95487 181.801 1.92368C181.031 1.77114 180.25 1.67342 179.466 1.63127C179.42 1.30032 179.42 0.964619 179.466 0.633669H181.141L183.16 0.668067H184.795H186.47L188.438 0.633669H190.124C190.176 0.964195 190.176 1.30074 190.124 1.63127C189.33 1.677 188.539 1.77083 187.755 1.91222C187.562 1.9298 187.378 1.99788 187.22 2.10962C187.061 2.22135 186.936 2.37277 186.855 2.54861C186.711 3.06123 186.651 3.5936 186.677 4.12529V18.625C186.651 19.2475 186.711 19.8706 186.855 20.4769C186.917 20.6729 187.034 20.8473 187.191 20.9802C187.348 21.113 187.54 21.1989 187.744 21.2279C188.529 21.3831 189.325 21.4827 190.124 21.5261C190.176 21.8566 190.176 22.1931 190.124 22.5237H188.404H186.402H184.744H183.143H181.193H179.524C179.449 22.1953 179.449 21.8544 179.524 21.5261C180.293 21.479 181.06 21.3852 181.818 21.2451C182.007 21.2239 182.187 21.1534 182.34 21.0407C182.493 20.928 182.614 20.777 182.69 20.603C182.828 20.0894 182.886 19.5576 182.862 19.0263V11.636H170.328V18.625C170.303 19.2529 170.36 19.8814 170.5 20.4941C170.567 20.6862 170.685 20.8564 170.842 20.9858C170.999 21.1153 171.188 21.1991 171.389 21.2279C172.165 21.382 172.951 21.4816 173.741 21.5261C173.787 21.857 173.787 22.1927 173.741 22.5237H172.02H170.018H168.366H166.743H164.758H163.083Z" fill="black"/>
<path d="M21.4574 16.108C21.182 17.937 20.9698 19.8003 20.8321 21.6924C19.5529 22.0249 18.2565 22.3288 16.9314 22.5982C15.5315 22.8739 14.1075 23.0084 12.6807 22.9996C10.3704 23.0574 8.07714 22.5888 5.97489 21.6293C4.17004 20.7893 2.64191 19.4529 1.56935 17.7765C0.495804 16.0181 -0.0479146 13.9877 0.00331348 11.9284C-0.0382079 9.82147 0.503764 7.74404 1.56935 5.9256C2.62597 4.17568 4.1603 2.76348 5.9921 1.8549C8.08283 0.833602 10.3888 0.330182 12.7151 0.387163C13.5534 0.379782 14.391 0.431504 15.2219 0.541958C15.9447 0.650892 16.8167 0.805697 17.8377 1.0121C18.3024 1.0981 18.7097 1.17837 19.0538 1.26437C19.4095 1.34529 19.7733 1.38568 20.138 1.38476H20.5166C20.6345 1.37704 20.7515 1.35979 20.8665 1.33317C20.9124 2.2505 20.9583 3.19652 21.0042 4.17119C21.0501 5.1516 21.1247 6.17213 21.2165 7.23281C20.8233 7.28889 20.4258 7.30808 20.029 7.29014C19.1227 3.52905 16.744 1.64851 12.893 1.64851C11.5214 1.60852 10.1597 1.89131 8.91766 2.4741C7.86413 2.99369 6.95562 3.76581 6.27318 4.72159C5.58887 5.6846 5.0926 6.76807 4.81041 7.91508C4.50378 9.12954 4.35152 10.3778 4.35723 11.6303C4.33977 13.3559 4.64724 15.0694 5.26359 16.6814C5.82901 18.1679 6.82828 19.4503 8.13178 20.3622C9.61855 21.3316 11.3719 21.8108 13.1454 21.7325C14.7964 21.8193 16.427 21.3354 17.7632 20.3622C19.0329 19.2446 19.9064 17.7461 20.2528 16.0908H20.8264C21.01 16.0794 21.2279 16.0908 21.4574 16.108Z" fill="black"/>
<path d="M107.744 13.4647C107.085 12.6488 106.228 12.0152 105.254 11.6242C104.158 11.1743 102.995 10.9107 101.812 10.8445V10.8158C105.453 9.88321 107.273 8.09057 107.273 5.43794C107.294 4.70494 107.114 3.9802 106.752 3.34241C106.39 2.70461 105.86 2.17815 105.22 1.82018C103.847 0.986933 101.743 0.570313 98.9097 0.570313C98.336 0.570313 97.6018 0.570311 96.661 0.604711C95.7202 0.639112 94.8942 0.633371 94.1714 0.633371H92.5194L90.5173 0.598972H88.7964C88.7505 0.929922 88.7505 1.26562 88.7964 1.59657C89.5672 1.64353 90.3338 1.74315 91.091 1.89472C91.2908 1.92772 91.4783 2.013 91.6345 2.1419C91.7907 2.27079 91.9099 2.43871 91.9801 2.62859C92.12 3.24125 92.1779 3.86976 92.1522 4.49766V19.0031C92.1765 19.5344 92.1184 20.0662 91.9801 20.5798C91.903 20.7516 91.7816 20.9 91.6285 21.0097C91.4753 21.1195 91.2958 21.1868 91.1082 21.2047C90.6435 21.2964 89.8634 21.3939 88.7735 21.4971C88.7275 21.8281 88.7275 22.1638 88.7735 22.4947H90.4944L92.548 22.4603H94.114C94.7909 22.4603 95.5596 22.4603 96.4086 22.5119C97.2576 22.5635 98.1295 22.5578 98.9326 22.5578C99.7357 22.5578 100.556 22.5234 101.302 22.4603C102.004 22.4064 102.702 22.303 103.39 22.1507C104.796 21.8391 106.087 21.1423 107.118 20.1383C107.609 19.658 107.995 19.0817 108.253 18.4454C108.511 17.8091 108.634 17.1265 108.616 16.4403C108.683 15.3769 108.374 14.3238 107.744 13.4647ZM102.954 20.0924C101.967 20.8951 100.581 21.2964 98.7949 21.2964C97.8706 21.2836 96.9493 21.1896 96.0415 21.0155C96.0185 20.7862 96.007 20.4938 96.007 20.1383V2.02085L97.0683 1.91192C97.3979 1.87682 97.7292 1.8596 98.0607 1.86032C101.426 1.86032 103.111 3.31659 103.114 6.22914C103.159 6.8462 103.053 7.4648 102.808 8.03263C102.562 8.60046 102.183 9.10084 101.703 9.49143C100.906 10.0992 99.6382 10.4432 97.9115 10.5349V11.8134H98.0607C100.267 11.8134 101.881 12.1823 102.902 12.92C103.923 13.6577 104.434 14.8273 104.434 16.4288C104.434 18.08 103.94 19.3069 102.954 20.1039V20.0924Z" fill="black"/>
</svg>
