<svg width="238" height="92" viewBox="0 0 238 92" fill="none" xmlns="http://www.w3.org/2000/svg">
<path d="M135.254 0.0517578C134.365 0.0517578 133.442 0.0804281 132.472 0.109095C111.896 0.762699 105.614 8.31927 101.714 16.8161L101.312 17.6991L100.492 19.5051C97.6236 25.5423 94.7096 31.5967 92.8625 35.398C88.9216 43.4935 83.7359 44.4968 81.2061 44.5713C78.2461 44.6401 75.9229 43.998 73.984 42.7309C72.0357 41.4341 70.4551 39.6568 69.3949 37.5709C68.2752 35.3993 67.5011 33.0665 67.1004 30.6565C66.2437 25.8496 66.2437 20.9292 67.1004 16.1224C67.5011 13.7124 68.2752 11.3796 69.3949 9.20794C70.4517 7.0118 72.0265 5.10521 73.984 3.65231C75.4793 2.62729 77.2274 2.03233 79.0378 1.9323V0.0517578C70.7544 0.212292 66.3431 1.43349 62.5973 3.05604C58.3593 4.78762 54.6631 7.62268 51.8932 11.2662C49.2832 14.8396 47.917 19.1696 48.0039 23.593C48.0039 28.3746 49.2602 32.4644 51.7727 35.8624C54.2852 39.2603 57.8151 41.8595 62.3621 43.6597C66.9053 45.4638 72.1981 46.3659 78.2404 46.3659C79.0435 46.3659 82.3534 46.3659 83.3228 46.3659C103.899 45.718 110.181 38.1614 114.081 29.6646L114.489 28.7816L116.037 25.3416C118.648 19.8835 121.258 14.5056 122.921 11.0598C127.332 1.99538 133.155 1.88644 135.249 1.88644L135.254 0.0517578Z" fill="#36373C"/>
<path d="M83.6318 0V1.82895H83.672C88.3988 1.82895 92.638 5.62443 93.5271 11.1629C93.9073 13.4266 93.6409 15.7517 92.7584 17.8709C92.7584 17.8996 92.7584 17.9225 92.7584 17.9512H94.1696L102.373 0H83.6318Z" fill="#36373C"/>
<path d="M156.972 44.4966C152.572 44.0838 148.752 40.4202 147.914 35.1971C147.534 32.9352 147.8 30.612 148.683 28.4948C148.686 28.4681 148.686 28.4412 148.683 28.4146H147.272L139.086 46.3715H157.001L156.972 44.4966Z" fill="#36373C"/>
<path d="M170.521 22.0216C172.242 21.907 173.625 21.7808 174.445 21.6318C177.611 21.0584 180.336 20.2615 182.476 19.0632C187.358 16.3513 189.015 13.2496 188.981 11.1798C188.803 1.62232 172.437 0.108713 165.393 0.0341797H160.649C159.777 0.0341797 158.871 0.06285 157.924 0.0915169C137.348 0.745121 131.066 8.30169 127.166 16.7985L126.758 17.6815L125.938 19.4875C123.07 25.5247 120.162 31.5792 118.314 35.3804C113.897 44.4506 108.081 44.5538 105.981 44.5538V46.3827C106.87 46.3827 107.794 46.3827 108.758 46.3827C129.34 45.7348 135.615 38.1783 139.522 29.6814L139.923 28.7985L141.478 25.3585C144.082 19.9003 146.698 14.5224 148.362 11.0766C152.773 2.0122 158.549 1.93766 160.689 1.90326H160.953C167.412 1.94913 171.158 4.63233 171.158 10.5606C171.158 15.3996 166.787 20.766 156.198 20.9954V22.8759C156.198 22.8759 159.915 22.7842 161.618 22.916C166.477 23.2945 170.401 26.981 170.464 33.3221C170.498 37.1635 168.169 43.2982 161.509 44.4276V46.3827C166.099 46.3827 171.835 46.3311 174.066 45.9584C177.147 45.4564 180.105 44.3726 182.78 42.765C187.656 39.7893 188.987 36.2461 188.952 33.9757C188.843 25.5591 178.323 22.8186 170.521 22.0216Z" fill="#36373C"/>
<path d="M36.7732 89.6526C35.9478 89.5575 35.1541 89.2793 34.4499 88.8385C33.5338 88.2554 32.7754 87.456 32.2414 86.5108C31.6694 85.5071 31.259 84.4198 31.0253 83.2886C30.5052 80.9357 30.5052 78.4977 31.0253 76.1448C31.2574 75.0302 31.6619 73.9586 32.2242 72.9685C32.7475 72.0395 33.4899 71.2523 34.3868 70.6752C35.1079 70.2217 35.9251 69.9429 36.7732 69.8611V68.5825C35.0853 68.679 33.4432 69.1678 31.9775 70.0101C30.344 70.9597 29.0118 72.3508 28.1342 74.0235C27.2082 75.842 26.7433 77.86 26.7804 79.9002C26.7448 81.8674 27.1836 83.8142 28.0596 85.5762C28.8777 87.2074 30.1482 88.5688 31.7194 89.4978C33.261 90.378 34.9982 90.8589 36.7732 90.8968V89.6526Z" fill="#36373C"/>
<path d="M47.3797 73.8747C46.5482 72.2552 45.2754 70.9036 43.7084 69.976C42.1779 69.0936 40.4498 68.6106 38.6833 68.5713V69.867C39.5562 69.9334 40.4003 70.2087 41.1442 70.6697C42.0414 71.2412 42.7794 72.0301 43.2897 72.9631C43.8536 73.9742 44.2562 75.0671 44.4828 76.2024C44.9646 78.6056 44.9646 81.0805 44.4828 83.4838C44.2749 84.5922 43.8874 85.6592 43.3356 86.6429C42.828 87.5529 42.1027 88.3231 41.2246 88.8846C40.4527 89.347 39.5814 89.6183 38.6833 89.6758V90.9085C40.3761 90.8189 42.0234 90.3297 43.4904 89.4809C45.1184 88.5279 46.446 87.1374 47.3223 85.4675C48.2542 83.645 48.7193 81.6199 48.6761 79.5736C48.7158 77.5967 48.2707 75.6401 47.3797 73.8747V73.8747Z" fill="#36373C"/>
<path d="M61.0548 89.2571C60.8686 89.2241 60.6956 89.1385 60.5564 89.0105C60.4172 88.8826 60.3174 88.7175 60.269 88.5347C60.1438 87.92 60.0918 87.2926 60.1141 86.6656V72.3322C60.0905 71.802 60.1426 71.2711 60.269 70.7555C60.3317 70.5947 60.4358 70.4533 60.5708 70.3455C60.7058 70.2378 60.8668 70.1676 61.0377 70.1421C61.7112 70.0024 62.3935 69.9085 63.0798 69.8611C63.1368 69.5349 63.1368 69.2012 63.0798 68.875H61.5826L59.8617 68.9037H58.4276H56.9763L55.1693 68.875H53.6434C53.6032 69.2025 53.6032 69.5337 53.6434 69.8611C54.3589 69.9079 55.0701 70.0056 55.7716 70.1535C55.9604 70.1873 56.1358 70.2735 56.2779 70.4023C56.4199 70.531 56.5228 70.6972 56.5747 70.8817C56.701 71.4904 56.753 72.1123 56.7296 72.7335V87.067C56.7537 87.5953 56.7015 88.1244 56.5747 88.6379C56.5097 88.8027 56.4002 88.9462 56.2584 89.0525C56.1166 89.1587 55.9481 89.2236 55.7716 89.2399C55.0679 89.376 54.3575 89.4755 53.6434 89.538C53.6032 89.8655 53.6032 90.1967 53.6434 90.5242H55.1693H56.8902H58.3415H59.8101H61.5711H63.0683C63.1253 90.1979 63.1253 89.8643 63.0683 89.538C62.3918 89.4883 61.7192 89.3944 61.0548 89.2571V89.2571Z" fill="#36373C"/>
<path d="M76.148 89.5378C75.4883 89.4747 74.9491 89.4002 74.5303 89.3199C74.1422 89.2528 73.7692 89.1169 73.429 88.9186C73.0625 88.6825 72.7337 88.3926 72.4538 88.0586C72.1268 87.6744 71.7138 87.1642 71.2205 86.5278L64.8645 78.1685L69.4135 73.4385C70.1324 72.697 70.729 72.1007 71.2032 71.6497C71.5963 71.2612 72.0245 70.9099 72.4824 70.6005C72.851 70.3574 73.2584 70.179 73.6871 70.073C74.2106 69.9549 74.7414 69.8726 75.2761 69.8265C75.3162 69.499 75.3162 69.1678 75.2761 68.8403C74.5762 68.8403 73.9337 68.8403 73.3486 68.869C72.7635 68.8977 72.1383 68.9034 71.4786 68.9034H70.1822L68.576 68.8747H67.2509C67.2106 69.2022 67.2106 69.5334 67.2509 69.8609C67.8643 69.8873 68.4736 69.9757 69.0693 70.1246C69.4422 70.2393 69.643 70.4285 69.643 70.6979C69.643 70.9674 69.2529 71.5809 68.4957 72.4179L61.8701 79.4413L70.0789 90.4953H71.0426H71.9203H73.2511H74.8229H76.2111C76.2499 90.175 76.2285 89.8502 76.148 89.5378V89.5378Z" fill="#36373C"/>
<path d="M129.451 84.9683C129.135 85.6516 128.762 86.3075 128.338 86.9291C128.065 87.3681 127.733 87.7674 127.351 88.1159C126.895 88.489 126.362 88.7572 125.791 88.9014C124.978 89.0993 124.143 89.188 123.307 89.1651H119.079C119.046 88.8932 119.03 88.6193 119.033 88.3453C119.033 87.9267 119.033 87.3649 119.033 86.6654V82.5202V77.0276V70.1877H123.077C123.757 70.1746 124.436 70.2478 125.097 70.4056C125.602 70.5309 126.079 70.7508 126.502 71.0534C126.901 71.3527 127.246 71.7171 127.523 72.1313C127.87 72.6442 128.159 73.1942 128.384 73.771C128.723 73.8112 129.066 73.8112 129.405 73.771C129.261 72.8652 129.129 72.0109 129.02 71.2082C128.911 70.4056 128.808 69.6258 128.728 68.8633H127.058L123.508 68.892C122.091 68.892 120.565 68.892 118.919 68.892C118.029 68.892 117.301 68.892 116.727 68.892H115.242C114.834 68.892 114.427 68.892 114.025 68.892C113.624 68.892 113.153 68.892 112.62 68.892C112.58 69.2194 112.58 69.5506 112.62 69.8781C113.311 69.9261 113.997 70.0238 114.674 70.1705C114.859 70.2072 115.031 70.2947 115.17 70.4232C115.309 70.5518 115.409 70.7164 115.46 70.8986C115.586 71.5074 115.638 72.1292 115.614 72.7505V87.0839C115.636 87.6084 115.584 88.1334 115.46 88.6434C115.4 88.807 115.295 88.9509 115.159 89.0592C115.022 89.1674 114.858 89.2358 114.685 89.2569C114.003 89.3947 113.313 89.4942 112.62 89.555C112.58 89.8825 112.58 90.2137 112.62 90.5411C113.194 90.5411 113.687 90.5411 114.146 90.5411H115.752C116.36 90.5411 117.146 90.5411 118.115 90.5411H120.261H123.238C124.328 90.5411 125.418 90.5411 126.514 90.5411H129.537C129.64 89.8646 129.76 89.0619 129.909 88.1389C130.059 87.2158 130.225 86.1723 130.431 85.0199C130.108 84.9606 129.778 84.9432 129.451 84.9683V84.9683Z" fill="#36373C"/>
<path d="M125.716 75.3135C125.369 75.2503 125.013 75.2503 124.666 75.3135C124.595 76.0735 124.402 76.817 124.093 77.5151C123.977 77.7385 123.815 77.9346 123.617 78.0899C123.419 78.2452 123.19 78.3561 122.945 78.4152C122.261 78.572 121.559 78.6394 120.857 78.6159V78.6159V79.969H120.989C121.679 79.9495 122.369 80.013 123.043 80.1582C123.28 80.2169 123.502 80.3275 123.691 80.4822C123.881 80.6369 124.034 80.8317 124.139 81.0526C124.463 81.7956 124.657 82.5888 124.712 83.3975C125.06 83.455 125.414 83.455 125.762 83.3975C125.762 82.3483 125.728 81.4883 125.716 80.8175C125.705 80.1467 125.716 79.6708 125.716 79.3211C125.716 78.9714 125.716 78.6044 125.716 78.0254C125.716 77.4463 125.693 76.5461 125.716 75.3135Z" fill="#36373C"/>
<path d="M210.528 84.9683C210.212 85.6503 209.842 86.306 209.421 86.9291C209.136 87.369 208.793 87.7682 208.4 88.1159C207.944 88.489 207.411 88.7572 206.84 88.9014C206.027 89.0993 205.192 89.188 204.356 89.1651H200.128C200.095 88.8932 200.08 88.6193 200.082 88.3453C200.082 87.9267 200.082 87.3649 200.082 86.6654V82.5202V77.0276V70.1877H204.098C204.778 70.1746 205.456 70.2478 206.117 70.4056C206.622 70.5309 207.099 70.7508 207.523 71.0534C207.921 71.3527 208.266 71.7171 208.544 72.1313C208.89 72.6453 209.181 73.195 209.41 73.771C209.747 73.8112 210.088 73.8112 210.425 73.771C210.282 72.8652 210.156 72.0109 210.041 71.2082C209.926 70.4056 209.829 69.6258 209.748 68.8633H208.079L204.528 68.892C203.111 68.892 201.585 68.892 199.939 68.892C199.056 68.892 198.321 68.892 197.748 68.892H196.262C195.855 68.892 195.447 68.892 195.046 68.892C194.644 68.892 194.174 68.892 193.641 68.892C193.6 69.2194 193.6 69.5506 193.641 69.8781C194.331 69.9261 195.018 70.0238 195.694 70.1705C195.88 70.2072 196.052 70.2947 196.19 70.4232C196.329 70.5518 196.429 70.7164 196.48 70.8986C196.606 71.5074 196.658 72.1292 196.635 72.7505V87.0839C196.657 87.6084 196.605 88.1334 196.48 88.6434C196.42 88.8062 196.317 88.9496 196.182 89.0578C196.046 89.166 195.883 89.2348 195.711 89.2569C195.027 89.3941 194.336 89.4936 193.641 89.555C193.6 89.8825 193.6 90.2137 193.641 90.5411C194.214 90.5411 194.707 90.5411 195.166 90.5411H196.773C197.381 90.5411 198.167 90.5411 199.136 90.5411H201.281H204.259C205.348 90.5411 206.438 90.5411 207.534 90.5411H210.557C210.66 89.8646 210.781 89.0619 210.93 88.1389C211.079 87.2158 211.245 86.1723 211.452 85.0199C211.147 84.9654 210.837 84.9481 210.528 84.9683V84.9683Z" fill="#36373C"/>
<path d="M206.765 75.3135C206.418 75.2503 206.063 75.2503 205.716 75.3135C205.645 76.0735 205.451 76.817 205.142 77.5151C205.026 77.7385 204.864 77.9346 204.666 78.0899C204.468 78.2452 204.239 78.3561 203.995 78.4152C203.3 78.5716 202.589 78.639 201.878 78.6159V78.6159V79.969H202.044C202.734 79.949 203.424 80.0125 204.098 80.1582C204.335 80.2169 204.557 80.3275 204.746 80.4822C204.936 80.6369 205.089 80.8317 205.194 81.0526C205.518 81.7956 205.712 82.5888 205.767 83.3975C206.115 83.455 206.469 83.455 206.817 83.3975C206.817 82.3483 206.783 81.4883 206.771 80.8175C206.76 80.1467 206.771 79.6708 206.771 79.3211C206.771 78.9714 206.771 78.6044 206.771 78.0254C206.771 77.4463 206.748 76.5461 206.765 75.3135Z" fill="#36373C"/>
<path d="M237.271 84.1085C236.996 85.9375 236.783 87.8008 236.646 89.6928C235.366 90.0254 234.07 90.3292 232.745 90.5987C231.345 90.8744 229.921 91.0089 228.494 91.0001C226.184 91.0579 223.891 90.5893 221.788 89.6298C219.984 88.7898 218.455 87.4534 217.383 85.7769C216.309 84.0186 215.766 81.9882 215.817 79.9289C215.784 77.8192 216.336 75.7416 217.412 73.9261C218.468 72.1762 220.002 70.764 221.834 69.8554C223.925 68.8341 226.231 68.3307 228.557 68.3877C229.396 68.3803 230.233 68.432 231.064 68.5424C231.787 68.6514 232.653 68.8062 233.68 69.0126C234.145 69.0986 234.546 69.1789 234.896 69.2649C235.25 69.3454 235.612 69.3858 235.974 69.3853H236.359C236.477 69.3771 236.594 69.3598 236.709 69.3337C236.755 70.251 236.801 71.197 236.846 72.1717C236.892 73.1521 236.961 74.1726 237.059 75.2333C236.665 75.2894 236.268 75.3086 235.871 75.2906C234.965 71.5295 232.584 69.649 228.729 69.649C227.36 69.609 226 69.8919 224.76 70.4746C223.706 70.9942 222.798 71.7663 222.115 72.7221C221.431 73.6851 220.935 74.7686 220.653 75.9156C220.346 77.13 220.194 78.3783 220.199 79.6308C220.179 81.3567 220.486 83.0708 221.106 84.6819C221.671 86.1684 222.67 87.4507 223.974 88.3627C225.461 89.3321 227.214 89.8113 228.988 89.733C230.629 89.8154 232.249 89.3317 233.577 88.3627C234.85 87.2473 235.726 85.7481 236.072 84.0913H236.646C236.823 84.0799 237.041 84.0913 237.271 84.1085Z" fill="#36373C"/>
<path d="M148.575 68.439L156.095 86.2124C156.329 86.7984 156.591 87.3724 156.881 87.9324C157.056 88.2865 157.298 88.6037 157.593 88.867C157.884 89.0862 158.225 89.23 158.585 89.2855C158.992 89.36 159.532 89.4288 160.208 89.4919C160.277 89.8209 160.277 90.1605 160.208 90.4895C159.394 90.4895 158.539 90.478 157.644 90.4551C156.755 90.4551 155.889 90.4264 155.051 90.4264H153.29L151.306 90.4608H149.55C149.481 90.1319 149.481 89.7922 149.55 89.4632C150.416 89.4257 151.277 89.3202 152.126 89.1479C152.613 89.0218 152.86 88.7752 152.86 88.4026C152.855 88.2051 152.812 88.0105 152.734 87.8292C152.654 87.6113 152.556 87.3591 152.441 87.0667L146.493 72.8651L140.676 86.5908C140.515 86.973 140.389 87.3113 140.297 87.6056C140.212 87.8295 140.164 88.0657 140.154 88.3051C140.155 88.5095 140.227 88.7073 140.357 88.8643C140.488 89.0213 140.67 89.1277 140.871 89.1651C141.743 89.3783 142.635 89.4993 143.533 89.5263C143.602 89.8553 143.602 90.1949 143.533 90.5239H142.001L139.982 90.4895H138.45C137.705 90.4895 137.039 90.4895 136.448 90.5182C135.857 90.5468 135.198 90.5526 134.481 90.5526C134.406 90.2242 134.406 89.8833 134.481 89.5549C135.154 89.49 135.705 89.4269 136.133 89.3658C136.525 89.3166 136.9 89.1773 137.228 88.9587C137.582 88.6982 137.873 88.3635 138.083 87.9783C138.43 87.3695 138.739 86.7395 139.007 86.092L146.705 68.7199C147.018 68.6267 147.338 68.5634 147.663 68.5307C147.965 68.4839 148.27 68.4533 148.575 68.439Z" fill="#36373C"/>
<path d="M163.083 90.5241C163.009 90.1958 163.009 89.8549 163.083 89.5265C163.853 89.4778 164.619 89.384 165.378 89.2456C165.571 89.2241 165.755 89.1538 165.914 89.0415C166.072 88.9292 166.2 88.7785 166.284 88.6035C166.439 88.0929 166.504 87.5596 166.479 87.0268V72.5271C166.503 71.8971 166.444 71.2666 166.301 70.6523C166.23 70.4602 166.108 70.2907 165.948 70.1616C165.789 70.0326 165.598 69.9486 165.395 69.9184C164.615 69.7684 163.825 69.6707 163.032 69.626C162.957 69.2977 162.957 68.9568 163.032 68.6284H164.752L166.789 68.6628H168.429H170.047L172.066 68.6284H173.724C173.793 68.9574 173.793 69.2971 173.724 69.626C172.941 69.672 172.161 69.7658 171.389 69.907C171.196 69.9236 171.01 69.9912 170.85 70.103C170.691 70.2148 170.564 70.3667 170.483 70.5434C170.345 71.0569 170.287 71.5888 170.311 72.1201V78.2662H182.845V72.5329C182.871 71.9031 182.813 71.2727 182.673 70.658C182.608 70.4679 182.493 70.2989 182.339 70.1696C182.186 70.0402 181.999 69.9554 181.801 69.9242C181.031 69.7716 180.25 69.6739 179.466 69.6318C179.42 69.3008 179.42 68.9651 179.466 68.6342H181.141L183.16 68.6686H184.795H186.47L188.438 68.6342H190.124C190.176 68.9647 190.176 69.3012 190.124 69.6318C189.33 69.6775 188.539 69.7713 187.755 69.9127C187.562 69.9303 187.378 69.9984 187.22 70.1101C187.061 70.2218 186.936 70.3733 186.855 70.5491C186.711 71.0617 186.651 71.5941 186.677 72.1258V86.6255C186.651 87.248 186.711 87.8711 186.855 88.4773C186.917 88.6734 187.034 88.8478 187.191 88.9807C187.348 89.1135 187.54 89.1994 187.744 89.2284C188.529 89.3836 189.325 89.4832 190.124 89.5265C190.176 89.8571 190.176 90.1936 190.124 90.5241H188.404H186.402H184.744H183.143H181.193H179.524C179.449 90.1958 179.449 89.8549 179.524 89.5265C180.293 89.4795 181.06 89.3857 181.818 89.2456C182.007 89.2244 182.187 89.1539 182.34 89.0412C182.493 88.9285 182.614 88.7775 182.69 88.6035C182.828 88.0899 182.886 87.5581 182.862 87.0268V79.6365H170.328V86.6255C170.303 87.2534 170.36 87.8819 170.5 88.4945C170.567 88.6867 170.685 88.8569 170.842 88.9863C170.999 89.1158 171.188 89.1995 171.389 89.2284C172.165 89.3825 172.951 89.4821 173.741 89.5265C173.787 89.8575 173.787 90.1932 173.741 90.5241H172.02H170.018H168.366H166.743H164.758H163.083Z" fill="#36373C"/>
<path d="M21.4574 84.1085C21.182 85.9375 20.9698 87.8008 20.8321 89.6928C19.5529 90.0254 18.2565 90.3292 16.9314 90.5987C15.5315 90.8744 14.1075 91.0089 12.6807 91.0001C10.3704 91.0579 8.07714 90.5893 5.97489 89.6298C4.17004 88.7898 2.64191 87.4534 1.56935 85.7769C0.495804 84.0186 -0.0479146 81.9882 0.00331347 79.9289C-0.0382079 77.822 0.503764 75.7445 1.56935 73.9261C2.62597 72.1762 4.1603 70.764 5.9921 69.8554C8.08283 68.8341 10.3888 68.3307 12.7151 68.3877C13.5534 68.3803 14.391 68.432 15.2219 68.5424C15.9447 68.6514 16.8167 68.8062 17.8377 69.0126C18.3024 69.0986 18.7097 69.1789 19.0538 69.2649C19.4095 69.3458 19.7733 69.3862 20.138 69.3853H20.5166C20.6345 69.3775 20.7515 69.3603 20.8665 69.3337C20.9124 70.251 20.9583 71.197 21.0042 72.1717C21.0501 73.1521 21.1247 74.1726 21.2165 75.2333C20.8233 75.2894 20.4258 75.3086 20.029 75.2906C19.1227 71.5295 16.744 69.649 12.893 69.649C11.5214 69.609 10.1597 69.8918 8.91766 70.4746C7.86413 70.9942 6.95562 71.7663 6.27318 72.7221C5.58887 73.6851 5.0926 74.7686 4.81041 75.9156C4.50378 77.13 4.35152 78.3783 4.35723 79.6308C4.33977 81.3564 4.64724 83.0699 5.26359 84.6819C5.82901 86.1684 6.82828 87.4507 8.13178 88.3627C9.61855 89.3321 11.3719 89.8113 13.1454 89.733C14.7964 89.8197 16.427 89.3359 17.7632 88.3627C19.0329 87.2451 19.9064 85.7466 20.2528 84.0913H20.8264C21.01 84.0799 21.2279 84.0913 21.4574 84.1085Z" fill="#36373C"/>
<path d="M107.744 81.4656C107.085 80.6498 106.228 80.0162 105.254 79.6252C104.158 79.1752 102.995 78.9117 101.812 78.8455V78.8168C105.453 77.8842 107.273 76.0916 107.273 73.4389C107.294 72.7059 107.114 71.9812 106.752 71.3434C106.39 70.7056 105.86 70.1791 105.22 69.8212C103.847 68.9879 101.743 68.5713 98.9097 68.5713C98.336 68.5713 97.6018 68.5713 96.661 68.6057C95.7202 68.6401 94.8942 68.6343 94.1714 68.6343H92.5194L90.5173 68.5999H88.7964C88.7505 68.9309 88.7505 69.2666 88.7964 69.5975C89.5672 69.6445 90.3338 69.7441 91.091 69.8957C91.2908 69.9287 91.4783 70.014 91.6345 70.1429C91.7907 70.2718 91.9099 70.4397 91.9801 70.6296C92.12 71.2422 92.1779 71.8707 92.1522 72.4986V87.0041C92.1765 87.5353 92.1184 88.0672 91.9801 88.5807C91.903 88.7526 91.7816 88.901 91.6285 89.0107C91.4753 89.1205 91.2958 89.1878 91.1082 89.2057C90.6435 89.2974 89.8634 89.3949 88.7735 89.4981C88.7275 89.829 88.7275 90.1647 88.7735 90.4957H90.4944L92.548 90.4613H94.114C94.7909 90.4613 95.5596 90.4613 96.4086 90.5129C97.2576 90.5645 98.1295 90.5587 98.9326 90.5587C99.7357 90.5587 100.556 90.5243 101.302 90.4613C102.004 90.4074 102.702 90.3039 103.39 90.1517C104.796 89.8401 106.087 89.1433 107.118 88.1393C107.609 87.659 107.995 87.0827 108.253 86.4464C108.511 85.81 108.634 85.1274 108.616 84.4412C108.683 83.3779 108.374 82.3247 107.744 81.4656V81.4656ZM102.954 88.0934C101.967 88.8961 100.581 89.2974 98.7949 89.2974C97.8706 89.2846 96.9493 89.1906 96.0415 89.0165C96.0185 88.7871 96.007 88.4947 96.007 88.1393V70.0218L97.0683 69.9129C97.3979 69.8778 97.7292 69.8606 98.0607 69.8613C101.426 69.8613 103.111 71.3176 103.114 74.2301C103.159 74.8472 103.053 75.4658 102.808 76.0336C102.562 76.6014 102.183 77.1018 101.703 77.4924C100.906 78.1001 99.6382 78.4442 97.9115 78.5359V79.8144H98.0607C100.267 79.8144 101.881 80.1833 102.902 80.9209C103.923 81.6586 104.434 82.8283 104.434 84.4298C104.434 86.081 103.94 87.3079 102.954 88.1049V88.0934Z" fill="#36373C"/>
</svg>
