<svg width="238" height="92" viewBox="0 0 238 92" fill="none" xmlns="http://www.w3.org/2000/svg">
<path d="M135.254 0.0517578C134.365 0.0517578 133.442 0.0804281 132.472 0.109095C111.896 0.762699 105.614 8.31927 101.714 16.8161L101.312 17.6991L100.492 19.5051C97.6236 25.5423 94.7096 31.5967 92.8625 35.398C88.9216 43.4935 83.7359 44.4968 81.2061 44.5713C78.2461 44.6401 75.9229 43.998 73.984 42.7309C72.0357 41.4341 70.4551 39.6568 69.3949 37.5709C68.2752 35.3993 67.5011 33.0665 67.1004 30.6565C66.2437 25.8496 66.2437 20.9292 67.1004 16.1224C67.5011 13.7124 68.2752 11.3796 69.3949 9.20794C70.4517 7.0118 72.0265 5.10521 73.984 3.65231C75.4793 2.62729 77.2274 2.03233 79.0378 1.9323V0.0517578C70.7544 0.212292 66.3431 1.43349 62.5973 3.05604C58.3593 4.78762 54.6631 7.62268 51.8932 11.2662C49.2832 14.8396 47.917 19.1696 48.0039 23.593C48.0039 28.3746 49.2602 32.4644 51.7727 35.8624C54.2852 39.2603 57.8151 41.8595 62.3621 43.6597C66.9053 45.4638 72.1981 46.3659 78.2404 46.3659C79.0435 46.3659 82.3534 46.3659 83.3228 46.3659C103.899 45.718 110.181 38.1614 114.081 29.6646L114.489 28.7816L116.037 25.3416C118.648 19.8835 121.258 14.5056 122.921 11.0598C127.332 1.99538 133.155 1.88644 135.249 1.88644L135.254 0.0517578Z" fill="black"/>
<path d="M83.6318 0V1.82895H83.672C88.3988 1.82895 92.638 5.62443 93.5271 11.1629C93.9073 13.4266 93.6409 15.7517 92.7584 17.8709C92.7584 17.8996 92.7584 17.9225 92.7584 17.9512H94.1696L102.373 0H83.6318Z" fill="black"/>
<path d="M156.972 44.4961C152.572 44.0833 148.752 40.4197 147.914 35.1966C147.534 32.9348 147.8 30.6115 148.683 28.4943C148.686 28.4676 148.686 28.4407 148.683 28.4141H147.272L139.086 46.371H157.001L156.972 44.4961Z" fill="black"/>
<path d="M170.521 22.0216C172.242 21.907 173.625 21.7808 174.445 21.6318C177.611 21.0584 180.336 20.2615 182.476 19.0632C187.358 16.3513 189.015 13.2496 188.981 11.1798C188.803 1.62232 172.437 0.108713 165.393 0.0341797H160.649C159.777 0.0341797 158.871 0.06285 157.924 0.0915169C137.348 0.745121 131.066 8.30169 127.166 16.7985L126.758 17.6815L125.938 19.4875C123.07 25.5247 120.162 31.5792 118.314 35.3804C113.897 44.4506 108.081 44.5538 105.981 44.5538V46.3827C106.87 46.3827 107.794 46.3827 108.758 46.3827C129.34 45.7348 135.615 38.1783 139.522 29.6814L139.923 28.7985L141.478 25.3585C144.082 19.9003 146.698 14.5224 148.362 11.0766C152.773 2.0122 158.549 1.93766 160.689 1.90326H160.953C167.412 1.94913 171.158 4.63233 171.158 10.5606C171.158 15.3996 166.787 20.766 156.198 20.9954V22.8759C156.198 22.8759 159.915 22.7842 161.618 22.916C166.477 23.2945 170.401 26.981 170.464 33.3221C170.498 37.1635 168.169 43.2982 161.509 44.4276V46.3827C166.099 46.3827 171.835 46.3311 174.066 45.9584C177.147 45.4564 180.105 44.3726 182.78 42.765C187.656 39.7893 188.987 36.2461 188.952 33.9757C188.843 25.5591 178.323 22.8186 170.521 22.0216Z" fill="black"/>
<path d="M36.7732 89.6522C35.9478 89.557 35.1541 89.2788 34.4499 88.838C33.5338 88.2549 32.7754 87.4555 32.2414 86.5103C31.6694 85.5066 31.259 84.4193 31.0253 83.2881C30.5052 80.9352 30.5052 78.4972 31.0253 76.1443C31.2574 75.0298 31.6619 73.9581 32.2242 72.9681C32.7475 72.039 33.4899 71.2518 34.3868 70.6747C35.1079 70.2212 35.9251 69.9424 36.7732 69.8606V68.582C35.0853 68.6785 33.4432 69.1673 31.9775 70.0096C30.344 70.9592 29.0118 72.3503 28.1342 74.023C27.2082 75.8415 26.7433 77.8595 26.7804 79.8997C26.7448 81.8669 27.1836 83.8138 28.0596 85.5757C28.8777 87.2069 30.1482 88.5683 31.7194 89.4974C33.261 90.3775 34.9982 90.8584 36.7732 90.8963V89.6522Z" fill="black"/>
<path d="M47.3797 73.8737C46.5482 72.2542 45.2754 70.9027 43.7084 69.975C42.1779 69.0927 40.4498 68.6096 38.6833 68.5703V69.866C39.5562 69.9324 40.4003 70.2077 41.1442 70.6687C42.0414 71.2402 42.7794 72.0291 43.2897 72.9621C43.8536 73.9732 44.2562 75.0662 44.4828 76.2014C44.9646 78.6047 44.9646 81.0795 44.4828 83.4828C44.2749 84.5912 43.8874 85.6582 43.3356 86.6419C42.828 87.5519 42.1027 88.3221 41.2246 88.8836C40.4527 89.3461 39.5814 89.6173 38.6833 89.6748V90.9075C40.3761 90.8179 42.0234 90.3287 43.4904 89.4799C45.1184 88.5269 46.446 87.1364 47.3223 85.4665C48.2542 83.644 48.7193 81.6189 48.6761 79.5726C48.7158 77.5957 48.2707 75.6391 47.3797 73.8737V73.8737Z" fill="black"/>
<path d="M61.0548 89.2571C60.8686 89.2241 60.6956 89.1385 60.5564 89.0105C60.4172 88.8826 60.3174 88.7175 60.269 88.5347C60.1438 87.92 60.0918 87.2926 60.1141 86.6656V72.3322C60.0905 71.802 60.1426 71.2711 60.269 70.7555C60.3317 70.5947 60.4358 70.4533 60.5708 70.3455C60.7058 70.2378 60.8668 70.1676 61.0377 70.1421C61.7112 70.0024 62.3935 69.9085 63.0798 69.8611C63.1368 69.5349 63.1368 69.2012 63.0798 68.875H61.5826L59.8617 68.9037H58.4276H56.9763L55.1693 68.875H53.6434C53.6032 69.2025 53.6032 69.5337 53.6434 69.8611C54.3589 69.9079 55.0701 70.0056 55.7716 70.1535C55.9604 70.1873 56.1358 70.2735 56.2779 70.4023C56.4199 70.531 56.5228 70.6972 56.5747 70.8817C56.701 71.4904 56.753 72.1123 56.7296 72.7335V87.067C56.7537 87.5953 56.7015 88.1244 56.5747 88.6379C56.5097 88.8027 56.4002 88.9462 56.2584 89.0525C56.1166 89.1587 55.9481 89.2236 55.7716 89.2399C55.0679 89.376 54.3575 89.4755 53.6434 89.538C53.6032 89.8655 53.6032 90.1967 53.6434 90.5242H55.1693H56.8902H58.3415H59.8101H61.5711H63.0683C63.1253 90.1979 63.1253 89.8643 63.0683 89.538C62.3918 89.4883 61.7192 89.3944 61.0548 89.2571V89.2571Z" fill="black"/>
<path d="M76.148 89.5373C75.4883 89.4742 74.9491 89.3997 74.5303 89.3194C74.1422 89.2523 73.7692 89.1164 73.429 88.9181C73.0625 88.682 72.7337 88.3921 72.4538 88.0581C72.1268 87.6739 71.7138 87.1637 71.2205 86.5273L64.8645 78.168L69.4135 73.438C70.1324 72.6965 70.729 72.1002 71.2032 71.6492C71.5963 71.2607 72.0245 70.9094 72.4824 70.6C72.851 70.3569 73.2584 70.1785 73.6871 70.0725C74.2106 69.9544 74.7414 69.8721 75.2761 69.826C75.3162 69.4985 75.3162 69.1673 75.2761 68.8398C74.5762 68.8398 73.9337 68.8398 73.3486 68.8685C72.7635 68.8972 72.1383 68.9029 71.4786 68.9029H70.1822L68.576 68.8742H67.2509C67.2106 69.2017 67.2106 69.5329 67.2509 69.8604C67.8643 69.8868 68.4736 69.9752 69.0693 70.1241C69.4422 70.2388 69.643 70.428 69.643 70.6974C69.643 70.9669 69.2529 71.5804 68.4957 72.4175L61.8701 79.4408L70.0789 90.4948H71.0426H71.9203H73.2511H74.8229H76.2111C76.2499 90.1745 76.2285 89.8497 76.148 89.5373V89.5373Z" fill="black"/>
<path d="M129.451 84.9683C129.135 85.6516 128.762 86.3075 128.338 86.9291C128.065 87.3681 127.733 87.7674 127.351 88.1159C126.895 88.489 126.362 88.7572 125.791 88.9014C124.978 89.0993 124.143 89.188 123.307 89.1651H119.079C119.046 88.8932 119.03 88.6193 119.033 88.3453C119.033 87.9267 119.033 87.3649 119.033 86.6654V82.5202V77.0276V70.1877H123.077C123.757 70.1746 124.436 70.2478 125.097 70.4056C125.602 70.5309 126.079 70.7508 126.502 71.0534C126.901 71.3527 127.246 71.7171 127.523 72.1313C127.87 72.6442 128.159 73.1942 128.384 73.771C128.723 73.8112 129.066 73.8112 129.405 73.771C129.261 72.8652 129.129 72.0109 129.02 71.2082C128.911 70.4056 128.808 69.6258 128.728 68.8633H127.058L123.508 68.892C122.091 68.892 120.565 68.892 118.919 68.892C118.029 68.892 117.301 68.892 116.727 68.892H115.242C114.834 68.892 114.427 68.892 114.025 68.892C113.624 68.892 113.153 68.892 112.62 68.892C112.58 69.2194 112.58 69.5506 112.62 69.8781C113.311 69.9261 113.997 70.0238 114.674 70.1705C114.859 70.2072 115.031 70.2947 115.17 70.4232C115.309 70.5518 115.409 70.7164 115.46 70.8986C115.586 71.5074 115.638 72.1292 115.614 72.7505V87.0839C115.636 87.6084 115.584 88.1334 115.46 88.6434C115.4 88.807 115.295 88.9509 115.159 89.0592C115.022 89.1674 114.858 89.2358 114.685 89.2569C114.003 89.3947 113.313 89.4942 112.62 89.555C112.58 89.8825 112.58 90.2137 112.62 90.5411C113.194 90.5411 113.687 90.5411 114.146 90.5411H115.752C116.36 90.5411 117.146 90.5411 118.115 90.5411H120.261H123.238C124.328 90.5411 125.418 90.5411 126.514 90.5411H129.537C129.64 89.8646 129.76 89.0619 129.909 88.1389C130.059 87.2158 130.225 86.1723 130.431 85.0199C130.108 84.9606 129.778 84.9432 129.451 84.9683V84.9683Z" fill="black"/>
<path d="M125.716 75.313C125.369 75.2498 125.013 75.2498 124.666 75.313C124.595 76.073 124.402 76.8165 124.093 77.5146C123.977 77.7381 123.815 77.9341 123.617 78.0894C123.419 78.2447 123.19 78.3557 122.945 78.4147C122.261 78.5715 121.559 78.6389 120.857 78.6154V78.6154V79.9685H120.989C121.679 79.949 122.369 80.0125 123.043 80.1577C123.28 80.2164 123.502 80.3271 123.691 80.4817C123.881 80.6364 124.034 80.8312 124.139 81.0521C124.463 81.7951 124.657 82.5883 124.712 83.397C125.06 83.4546 125.414 83.4546 125.762 83.397C125.762 82.3478 125.728 81.4878 125.716 80.817C125.705 80.1462 125.716 79.6703 125.716 79.3206C125.716 78.9709 125.716 78.6039 125.716 78.0249C125.716 77.4458 125.693 76.5456 125.716 75.313Z" fill="black"/>
<path d="M210.528 84.9683C210.212 85.6503 209.842 86.306 209.421 86.9291C209.136 87.369 208.793 87.7682 208.4 88.1159C207.944 88.489 207.411 88.7572 206.84 88.9014C206.027 89.0993 205.192 89.188 204.356 89.1651H200.128C200.095 88.8932 200.08 88.6193 200.082 88.3453C200.082 87.9267 200.082 87.3649 200.082 86.6654V82.5202V77.0276V70.1877H204.098C204.778 70.1746 205.456 70.2478 206.117 70.4056C206.622 70.5309 207.099 70.7508 207.523 71.0534C207.921 71.3527 208.266 71.7171 208.544 72.1313C208.89 72.6453 209.181 73.195 209.41 73.771C209.747 73.8112 210.088 73.8112 210.425 73.771C210.282 72.8652 210.156 72.0109 210.041 71.2082C209.926 70.4056 209.829 69.6258 209.748 68.8633H208.079L204.528 68.892C203.111 68.892 201.585 68.892 199.939 68.892C199.056 68.892 198.321 68.892 197.748 68.892H196.262C195.855 68.892 195.447 68.892 195.046 68.892C194.644 68.892 194.174 68.892 193.641 68.892C193.6 69.2194 193.6 69.5506 193.641 69.8781C194.331 69.9261 195.018 70.0238 195.694 70.1705C195.88 70.2072 196.052 70.2947 196.19 70.4232C196.329 70.5518 196.429 70.7164 196.48 70.8986C196.606 71.5074 196.658 72.1292 196.635 72.7505V87.0839C196.657 87.6084 196.605 88.1334 196.48 88.6434C196.42 88.8062 196.317 88.9496 196.182 89.0578C196.046 89.166 195.883 89.2348 195.711 89.2569C195.027 89.3941 194.336 89.4936 193.641 89.555C193.6 89.8825 193.6 90.2137 193.641 90.5411C194.214 90.5411 194.707 90.5411 195.166 90.5411H196.773C197.381 90.5411 198.167 90.5411 199.136 90.5411H201.281H204.259C205.348 90.5411 206.438 90.5411 207.534 90.5411H210.557C210.66 89.8646 210.781 89.0619 210.93 88.1389C211.079 87.2158 211.245 86.1723 211.452 85.0199C211.147 84.9654 210.837 84.9481 210.528 84.9683V84.9683Z" fill="black"/>
<path d="M206.765 75.313C206.418 75.2498 206.063 75.2498 205.716 75.313C205.645 76.073 205.451 76.8165 205.142 77.5146C205.026 77.7381 204.864 77.9341 204.666 78.0894C204.468 78.2447 204.239 78.3557 203.995 78.4147C203.3 78.5711 202.589 78.6385 201.878 78.6154V78.6154V79.9685H202.044C202.734 79.9485 203.424 80.012 204.098 80.1577C204.335 80.2164 204.557 80.3271 204.746 80.4817C204.936 80.6364 205.089 80.8312 205.194 81.0521C205.518 81.7951 205.712 82.5883 205.767 83.397C206.115 83.4546 206.469 83.4546 206.817 83.397C206.817 82.3478 206.783 81.4878 206.771 80.817C206.76 80.1462 206.771 79.6703 206.771 79.3206C206.771 78.9709 206.771 78.6039 206.771 78.0249C206.771 77.4458 206.748 76.5456 206.765 75.313Z" fill="black"/>
<path d="M237.271 84.108C236.996 85.937 236.783 87.8003 236.646 89.6924C235.366 90.0249 234.07 90.3288 232.745 90.5982C231.345 90.8739 229.921 91.0084 228.494 90.9996C226.184 91.0574 223.891 90.5888 221.788 89.6293C219.984 88.7893 218.455 87.4529 217.383 85.7765C216.309 84.0181 215.766 81.9877 215.817 79.9284C215.784 77.8187 216.336 75.7411 217.412 73.9256C218.468 72.1757 220.002 70.7635 221.834 69.8549C223.925 68.8336 226.231 68.3302 228.557 68.3872C229.396 68.3798 230.233 68.4315 231.064 68.542C231.787 68.6509 232.653 68.8057 233.68 69.0121C234.145 69.0981 234.546 69.1784 234.896 69.2644C235.25 69.345 235.612 69.3853 235.974 69.3848H236.359C236.477 69.3766 236.594 69.3593 236.709 69.3332C236.755 70.2505 236.801 71.1965 236.846 72.1712C236.892 73.1516 236.961 74.1721 237.059 75.2328C236.665 75.2889 236.268 75.3081 235.871 75.2901C234.965 71.5291 232.584 69.6485 228.729 69.6485C227.36 69.6086 226 69.8914 224.76 70.4741C223.706 70.9937 222.798 71.7658 222.115 72.7216C221.431 73.6846 220.935 74.7681 220.653 75.9151C220.346 77.1295 220.194 78.3778 220.199 79.6303C220.179 81.3562 220.486 83.0703 221.106 84.6814C221.671 86.1679 222.67 87.4503 223.974 88.3622C225.461 89.3316 227.214 89.8108 228.988 89.7325C230.629 89.8149 232.249 89.3312 233.577 88.3622C234.85 87.2468 235.726 85.7476 236.072 84.0908H236.646C236.823 84.0794 237.041 84.0908 237.271 84.108Z" fill="black"/>
<path d="M148.575 68.4385L156.095 86.2119C156.329 86.7979 156.591 87.3719 156.881 87.9319C157.056 88.286 157.298 88.6033 157.593 88.8665C157.884 89.0857 158.225 89.2295 158.585 89.285C158.992 89.3595 159.532 89.4283 160.208 89.4914C160.277 89.8204 160.277 90.16 160.208 90.489C159.394 90.489 158.539 90.4775 157.644 90.4546C156.755 90.4546 155.889 90.4259 155.051 90.4259H153.29L151.306 90.4603H149.55C149.481 90.1314 149.481 89.7917 149.55 89.4627C150.416 89.4252 151.277 89.3197 152.126 89.1474C152.613 89.0213 152.86 88.7747 152.86 88.4021C152.855 88.2047 152.812 88.01 152.734 87.8287C152.654 87.6109 152.556 87.3586 152.441 87.0662L146.493 72.8646L140.676 86.5903C140.515 86.9725 140.389 87.3108 140.297 87.6051C140.212 87.829 140.164 88.0652 140.154 88.3046C140.155 88.509 140.227 88.7068 140.357 88.8638C140.488 89.0208 140.67 89.1272 140.871 89.1646C141.743 89.3778 142.635 89.4988 143.533 89.5258C143.602 89.8548 143.602 90.1944 143.533 90.5234H142.001L139.982 90.489H138.45C137.705 90.489 137.039 90.489 136.448 90.5177C135.857 90.5463 135.198 90.5521 134.481 90.5521C134.406 90.2237 134.406 89.8828 134.481 89.5545C135.154 89.4895 135.705 89.4264 136.133 89.3653C136.525 89.3161 136.9 89.1768 137.228 88.9582C137.582 88.6977 137.873 88.363 138.083 87.9778C138.43 87.369 138.739 86.739 139.007 86.0915L146.705 68.7194C147.018 68.6262 147.338 68.5629 147.663 68.5302C147.965 68.4835 148.27 68.4528 148.575 68.4385Z" fill="black"/>
<path d="M163.083 90.5237C163.009 90.1953 163.009 89.8544 163.083 89.5261C163.853 89.4773 164.619 89.3835 165.378 89.2451C165.571 89.2236 165.755 89.1533 165.914 89.041C166.072 88.9287 166.2 88.778 166.284 88.603C166.439 88.0924 166.504 87.5591 166.479 87.0263V72.5266C166.503 71.8966 166.444 71.2661 166.301 70.6518C166.23 70.4597 166.108 70.2902 165.948 70.1612C165.789 70.0321 165.598 69.9481 165.395 69.9179C164.615 69.7679 163.825 69.6702 163.032 69.6255C162.957 69.2972 162.957 68.9563 163.032 68.6279H164.752L166.789 68.6623H168.429H170.047L172.066 68.6279H173.724C173.793 68.9569 173.793 69.2966 173.724 69.6255C172.941 69.6715 172.161 69.7653 171.389 69.9065C171.196 69.9231 171.01 69.9907 170.85 70.1025C170.691 70.2143 170.564 70.3663 170.483 70.5429C170.345 71.0564 170.287 71.5883 170.311 72.1196V78.2657H182.845V72.5324C182.871 71.9026 182.813 71.2722 182.673 70.6575C182.608 70.4674 182.493 70.2985 182.339 70.1691C182.186 70.0397 181.999 69.9549 181.801 69.9237C181.031 69.7711 180.25 69.6734 179.466 69.6313C179.42 69.3003 179.42 68.9646 179.466 68.6337H181.141L183.16 68.6681H184.795H186.47L188.438 68.6337H190.124C190.176 68.9642 190.176 69.3007 190.124 69.6313C189.33 69.677 188.539 69.7708 187.755 69.9122C187.562 69.9298 187.378 69.9979 187.22 70.1096C187.061 70.2213 186.936 70.3728 186.855 70.5486C186.711 71.0612 186.651 71.5936 186.677 72.1253V86.625C186.651 87.2475 186.711 87.8706 186.855 88.4769C186.917 88.6729 187.034 88.8473 187.191 88.9802C187.348 89.113 187.54 89.1989 187.744 89.2279C188.529 89.3831 189.325 89.4827 190.124 89.5261C190.176 89.8566 190.176 90.1931 190.124 90.5237H188.404H186.402H184.744H183.143H181.193H179.524C179.449 90.1953 179.449 89.8544 179.524 89.5261C180.293 89.479 181.06 89.3852 181.818 89.2451C182.007 89.2239 182.187 89.1534 182.34 89.0407C182.493 88.928 182.614 88.777 182.69 88.603C182.828 88.0894 182.886 87.5576 182.862 87.0263V79.636H170.328V86.625C170.303 87.2529 170.36 87.8814 170.5 88.4941C170.567 88.6862 170.685 88.8564 170.842 88.9858C170.999 89.1153 171.188 89.1991 171.389 89.2279C172.165 89.382 172.951 89.4816 173.741 89.5261C173.787 89.857 173.787 90.1927 173.741 90.5237H172.02H170.018H168.366H166.743H164.758H163.083Z" fill="black"/>
<path d="M21.4574 84.108C21.182 85.937 20.9698 87.8003 20.8321 89.6924C19.5529 90.0249 18.2565 90.3288 16.9314 90.5982C15.5315 90.8739 14.1075 91.0084 12.6807 90.9996C10.3704 91.0574 8.07714 90.5888 5.97489 89.6293C4.17004 88.7893 2.64191 87.4529 1.56935 85.7765C0.495804 84.0181 -0.0479146 81.9877 0.00331347 79.9284C-0.0382079 77.8215 0.503764 75.744 1.56935 73.9256C2.62597 72.1757 4.1603 70.7635 5.9921 69.8549C8.08283 68.8336 10.3888 68.3302 12.7151 68.3872C13.5534 68.3798 14.391 68.4315 15.2219 68.542C15.9447 68.6509 16.8167 68.8057 17.8377 69.0121C18.3024 69.0981 18.7097 69.1784 19.0538 69.2644C19.4095 69.3453 19.7733 69.3857 20.138 69.3848H20.5166C20.6345 69.377 20.7515 69.3598 20.8665 69.3332C20.9124 70.2505 20.9583 71.1965 21.0042 72.1712C21.0501 73.1516 21.1247 74.1721 21.2165 75.2328C20.8233 75.2889 20.4258 75.3081 20.029 75.2901C19.1227 71.5291 16.744 69.6485 12.893 69.6485C11.5214 69.6085 10.1597 69.8913 8.91766 70.4741C7.86413 70.9937 6.95562 71.7658 6.27318 72.7216C5.58887 73.6846 5.0926 74.7681 4.81041 75.9151C4.50378 77.1295 4.35152 78.3778 4.35723 79.6303C4.33977 81.3559 4.64724 83.0694 5.26359 84.6814C5.82901 86.1679 6.82828 87.4503 8.13178 88.3622C9.61855 89.3316 11.3719 89.8108 13.1454 89.7325C14.7964 89.8193 16.427 89.3354 17.7632 88.3622C19.0329 87.2446 19.9064 85.7461 20.2528 84.0908H20.8264C21.01 84.0794 21.2279 84.0908 21.4574 84.108Z" fill="black"/>
<path d="M107.744 81.4646C107.085 80.6488 106.228 80.0152 105.254 79.6242C104.158 79.1743 102.995 78.9107 101.812 78.8445V78.8158C105.453 77.8832 107.273 76.0906 107.273 73.4379C107.294 72.7049 107.114 71.9802 106.752 71.3424C106.39 70.7046 105.86 70.1781 105.22 69.8202C103.847 68.9869 101.743 68.5703 98.9097 68.5703C98.336 68.5703 97.6018 68.5703 96.661 68.6047C95.7202 68.6391 94.8942 68.6334 94.1714 68.6334H92.5194L90.5173 68.599H88.7964C88.7505 68.9299 88.7505 69.2656 88.7964 69.5966C89.5672 69.6435 90.3338 69.7432 91.091 69.8947C91.2908 69.9277 91.4783 70.013 91.6345 70.1419C91.7907 70.2708 91.9099 70.4387 91.9801 70.6286C92.12 71.2413 92.1779 71.8698 92.1522 72.4977V87.0031C92.1765 87.5344 92.1184 88.0662 91.9801 88.5798C91.903 88.7516 91.7816 88.9 91.6285 89.0097C91.4753 89.1195 91.2958 89.1868 91.1082 89.2047C90.6435 89.2964 89.8634 89.3939 88.7735 89.4971C88.7275 89.8281 88.7275 90.1638 88.7735 90.4947H90.4944L92.548 90.4603H94.114C94.7909 90.4603 95.5596 90.4603 96.4086 90.5119C97.2576 90.5635 98.1295 90.5578 98.9326 90.5578C99.7357 90.5578 100.556 90.5234 101.302 90.4603C102.004 90.4064 102.702 90.303 103.39 90.1507C104.796 89.8391 106.087 89.1423 107.118 88.1383C107.609 87.658 107.995 87.0817 108.253 86.4454C108.511 85.8091 108.634 85.1265 108.616 84.4403C108.683 83.3769 108.374 82.3238 107.744 81.4646V81.4646ZM102.954 88.0924C101.967 88.8951 100.581 89.2964 98.7949 89.2964C97.8706 89.2836 96.9493 89.1896 96.0415 89.0155C96.0185 88.7862 96.007 88.4938 96.007 88.1383V70.0209L97.0683 69.9119C97.3979 69.8768 97.7292 69.8596 98.0607 69.8603C101.426 69.8603 103.111 71.3166 103.114 74.2291C103.159 74.8462 103.053 75.4648 102.808 76.0326C102.562 76.6005 102.183 77.1008 101.703 77.4914C100.906 78.0992 99.6382 78.4432 97.9115 78.5349V79.8134H98.0607C100.267 79.8134 101.881 80.1823 102.902 80.92C103.923 81.6577 104.434 82.8273 104.434 84.4288C104.434 86.08 103.94 87.3069 102.954 88.1039V88.0924Z" fill="black"/>
</svg>
