<?xml version="1.0" standalone="no"?>
<!DOCTYPE svg PUBLIC "-//W3C//DTD SVG 20010904//EN"
 "http://www.w3.org/TR/2001/REC-SVG-20010904/DTD/svg10.dtd">
<svg version="1.0" xmlns="http://www.w3.org/2000/svg"
 width="200.000000pt" height="200.000000pt" viewBox="0 0 200.000000 200.000000"
 preserveAspectRatio="xMidYMid meet">
<metadata>
Created by potrace 1.14, written by Peter Selinger 2001-2017
</metadata>
<g transform="translate(0.000000,200.000000) scale(0.100000,-0.100000)"
fill="#000000" stroke="none">
<path d="M827 1985 c-395 -75 -702 -364 -799 -752 -18 -70 -22 -117 -22 -233
0 -182 22 -278 99 -436 133 -274 366 -462 662 -536 70 -18 117 -22 233 -22
182 0 278 22 436 99 274 133 462 366 536 662 18 70 22 117 22 233 0 182 -22
278 -99 436 -132 272 -367 463 -657 535 -111 27 -306 34 -411 14z m-257 -744
c0 -5 -13 -14 -29 -21 -70 -29 -103 -99 -105 -220 -1 -60 4 -99 17 -132 55
-142 206 -142 272 -1 119 253 149 299 219 335 67 34 246 63 246 39 0 -5 -12
-11 -28 -14 -55 -11 -81 -46 -163 -213 -88 -180 -112 -208 -209 -246 -47 -19
-76 -22 -195 -22 -170 -1 -224 14 -296 84 -119 114 -79 306 78 380 69 32 193
52 193 31z m213 -91 c-26 -55 -49 -100 -52 -100 -3 0 -5 21 -3 47 4 61 -23
106 -72 124 -20 7 -36 17 -36 21 0 4 47 8 104 8 l105 0 -46 -100z m849 89
c186 -40 199 -164 23 -218 -33 -11 -51 -20 -39 -20 44 -2 115 -34 139 -63 57
-68 6 -155 -111 -187 -48 -13 -167 -15 -162 -2 2 6 19 20 38 33 70 47 74 158
7 198 -18 11 -49 20 -69 20 -54 0 -47 13 15 28 67 15 107 56 107 110 0 58 -36
87 -105 87 -82 0 -98 -17 -192 -205 -91 -183 -119 -216 -210 -250 -63 -23
-203 -39 -203 -23 0 6 12 14 26 17 56 14 75 39 155 200 85 170 110 206 173
238 85 43 289 62 408 37z m-280 -430 c9 -14 30 -32 47 -39 17 -7 31 -16 31
-21 0 -5 -45 -9 -100 -9 l-99 0 44 96 c25 53 46 99 46 103 1 3 5 -19 8 -49 3
-31 14 -67 23 -81z"/>
</g>
</svg>
