<svg width="40" height="40" viewBox="0 0 40 40" stroke="none" xmlns="http://www.w3.org/2000/svg">
<path fill-rule="evenodd" clip-rule="evenodd" d="M8 4C5.79086 4 4 5.79086 4 8V32C4 34.2091 5.79086 36 8 36H32C34.2091 36 36 34.2091 36 32V8C36 5.79086 34.2091 4 32 4H8ZM10.25 20C10.25 18.067 11.817 16.5 13.75 16.5H17.5001C18.3285 16.5 19.0001 15.8284 19.0001 15C19.0001 14.1716 18.3285 13.5 17.5001 13.5H13.75C10.1602 13.5 7.25 16.4102 7.25 20C7.25 23.5899 10.1602 26.5001 13.75 26.5001H17.5001C18.3285 26.5001 19.0001 25.8285 19.0001 25.0001C19.0001 24.1717 18.3285 23.5001 17.5001 23.5001H13.75C11.817 23.5001 10.25 21.9331 10.25 20ZM13.5002 20C13.5002 19.1716 14.1717 18.5 15.0002 18.5H25.0003C25.8287 18.5 26.5003 19.1716 26.5003 20C26.5003 20.8284 25.8287 21.5 25.0003 21.5H15.0002C14.1717 21.5 13.5002 20.8284 13.5002 20ZM29.7502 20C29.7502 18.067 28.1832 16.5 26.2501 16.5H22.5001C21.6717 16.5 21.0001 15.8284 21.0001 15C21.0001 14.1716 21.6717 13.5 22.5001 13.5H26.2501C29.84 13.5 32.7502 16.4102 32.7502 20C32.7502 23.5899 29.84 26.5001 26.2501 26.5001H22.5001C21.6717 26.5001 21.0001 25.8285 21.0001 25.0001C21.0001 24.1717 21.6717 23.5001 22.5001 23.5001H26.2501C28.1832 23.5001 29.7502 21.9331 29.7502 20Z" />
</svg>
