<svg width="40" height="40" viewBox="0 0 40 40" stroke="none" xmlns="http://www.w3.org/2000/svg">
<path d="M36.3576 9.38532C35.1513 9.91985 33.8554 10.281 32.4931 10.4443C33.8987 9.60317 34.9504 8.27937 35.4518 6.71989C34.1311 7.50433 32.6857 8.0565 31.1784 8.35238C30.1648 7.27012 28.8222 6.55278 27.3591 6.31173C25.8961 6.07068 24.3943 6.31941 23.0871 7.0193C21.7799 7.71919 20.7403 8.83109 20.1297 10.1824C19.5192 11.5336 19.3718 13.0487 19.7105 14.4923C17.0345 14.3579 14.4167 13.6624 12.0269 12.4508C9.63711 11.2392 7.52877 9.53869 5.83873 7.45956C5.26085 8.45639 4.92858 9.61214 4.92858 10.843C4.92793 11.9511 5.2008 13.0422 5.72298 14.0195C6.24515 14.9968 7.00048 15.8301 7.92195 16.4455C6.85329 16.4115 5.8082 16.1227 4.87368 15.6032V15.6899C4.87357 17.244 5.41115 18.7503 6.39519 19.9532C7.37924 21.156 8.74914 21.9814 10.2724 22.2892C9.28109 22.5575 8.24172 22.597 7.23284 22.4048C7.66263 23.742 8.49982 24.9113 9.62721 25.7491C10.7546 26.5869 12.1157 27.0511 13.5201 27.0769C11.1361 28.9483 8.19195 29.9635 5.16117 29.959C4.6243 29.9592 4.08788 29.9278 3.55469 29.8651C6.6311 31.8431 10.2123 32.8929 13.8697 32.8888C26.2506 32.8888 33.0189 22.6345 33.0189 13.741C33.0189 13.4521 33.0117 13.1603 32.9987 12.8713C34.3152 11.9193 35.4516 10.7403 36.3547 9.38966L36.3576 9.38532Z" />
</svg>
