<svg width="32" height="32" viewBox="0 0 32 32" fill="none" xmlns="http://www.w3.org/2000/svg">
<path d="M23.771 9.10457C24.5418 9.87532 24.9272 10.2607 25.1302 10.7507C25.3332 11.2408 25.3332 11.7858 25.3332 12.8758V22.6667C25.3332 25.1808 25.3332 26.4379 24.5521 27.2189C23.771 28 22.514 28 19.9998 28H11.9998C9.48568 28 8.2286 28 7.44756 27.2189C6.6665 26.4379 6.6665 25.1808 6.6665 22.6667V9.33333C6.6665 6.81917 6.6665 5.56209 7.44756 4.78105C8.2286 4 9.48568 4 11.9998 4H16.4573C17.5473 4 18.0924 4 18.5824 4.20299C19.0725 4.40597 19.4578 4.79135 20.2286 5.56209L23.771 9.10457Z" stroke="#7A7A7A" stroke-width="2" stroke-linejoin="round"/>
<path d="M16 14.6641V21.3307" stroke="#7A7A7A" stroke-width="2" stroke-linecap="round" stroke-linejoin="round"/>
<path d="M19.3332 18H12.6665" stroke="#7A7A7A" stroke-width="2" stroke-linecap="round" stroke-linejoin="round"/>
</svg>
