<svg width="40" height="40" viewBox="0 0 40 40" stroke="none" xmlns="http://www.w3.org/2000/svg">
<path fill-rule="evenodd" clip-rule="evenodd" d="M36.6673 20.0002C36.6673 29.2043 29.2048 36.6668 20.0007 36.6668C10.7965 36.6668 3.33398 29.2043 3.33398 20.0002C3.33398 10.796 10.7965 3.3335 20.0007 3.3335C29.2048 3.3335 36.6673 10.796 36.6673 20.0002ZM20.5979 15.6377C18.977 16.3113 15.7368 17.7071 10.8784 19.8238C10.0895 20.1377 9.67565 20.4446 9.63815 20.7446C9.57426 21.2529 10.2104 21.4529 11.0743 21.7238C11.1923 21.7613 11.3145 21.7988 11.4395 21.8404C12.2909 22.1168 13.4354 22.4404 14.0298 22.4529C14.5701 22.4641 15.1729 22.2418 15.8382 21.7863C20.377 18.721 22.7201 17.1724 22.8673 17.1391C22.9715 17.1154 23.1159 17.0849 23.2132 17.1724C23.3104 17.2585 23.3007 17.4224 23.2909 17.4668C23.227 17.7349 20.7354 20.0529 19.4437 21.2529C19.0409 21.6266 18.7562 21.8918 18.6979 21.9529C18.5673 22.0877 18.434 22.2168 18.3062 22.3404C17.5145 23.1016 16.9229 23.6738 18.3395 24.6071C19.0201 25.0557 19.5645 25.4266 20.1076 25.796C20.7006 26.2002 21.2923 26.6029 22.059 27.1057C22.2534 27.2335 22.4395 27.3654 22.6215 27.4946C23.3118 27.9877 23.9326 28.4293 24.6993 28.3599C25.1437 28.3182 25.6048 27.9002 25.8381 26.6516C26.3895 23.6988 27.4756 17.3043 27.727 14.6682C27.7423 14.4493 27.733 14.2295 27.6993 14.0127C27.6791 13.8376 27.5938 13.6765 27.4604 13.5613C27.2618 13.3988 26.9534 13.3641 26.8145 13.3668C26.1882 13.3779 25.227 13.7127 20.5979 15.6377Z" />
</svg>
