<svg width="40" height="40" viewBox="0 0 40 40" stroke="none" xmlns="http://www.w3.org/2000/svg">
<path d="M33.6005 11.3998C28.8005 3.99976 19.0005 1.79976 11.4005 6.39976C4.00054 10.9998 1.60054 20.9998 6.40054 28.3998L6.80054 28.9998L5.20054 34.9998L11.2005 33.3998L11.8005 33.7998C14.4005 35.1998 17.2005 35.9998 20.0005 35.9998C23.0005 35.9998 26.0005 35.1998 28.6005 33.5998C36.0005 28.7998 38.2005 18.9998 33.6005 11.3998ZM29.4005 26.7998C28.6005 27.9998 27.6005 28.7998 26.2005 28.9998C25.4005 28.9998 24.4005 29.3998 20.4005 27.7998C17.0005 26.1998 14.2005 23.5998 12.2005 20.5998C11.0005 19.1998 10.4005 17.3998 10.2005 15.5998C10.2005 13.9998 10.8005 12.5998 11.8005 11.5998C12.2005 11.1998 12.6005 10.9998 13.0005 10.9998H14.0005C14.4005 10.9998 14.8005 10.9998 15.0005 11.7998C15.4005 12.7998 16.4005 15.1998 16.4005 15.3998C16.6005 15.5998 16.6005 15.9998 16.4005 16.1998C16.6005 16.5998 16.4005 16.9998 16.2005 17.1998C16.0005 17.3998 15.8005 17.7998 15.6005 17.9998C15.2005 18.1998 15.0005 18.5998 15.2005 18.9998C16.0005 20.1998 17.0005 21.3998 18.0005 22.3998C19.2005 23.3998 20.4005 24.1998 21.8005 24.7998C22.2005 24.9998 22.6005 24.9998 22.8005 24.5998C23.0005 24.1998 24.0005 23.1998 24.4005 22.7998C24.8005 22.3998 25.0005 22.3998 25.4005 22.5998L28.6005 24.1998C29.0005 24.3998 29.4005 24.5998 29.6005 24.7998C29.8005 25.3998 29.8005 26.1998 29.4005 26.7998Z" />
</svg>
