<svg width="40" height="40" viewBox="0 0 40 40" stroke="none" xmlns="http://www.w3.org/2000/svg">
<path d="M38.7746 12.1676C38.7746 12.1676 38.3927 9.46693 37.2149 8.28186C35.7238 6.72215 34.0539 6.71236 33.29 6.62176C27.8126 6.22266 19.5856 6.22266 19.5856 6.22266H19.571C19.571 6.22266 11.3464 6.22266 5.86663 6.62176C5.10025 6.71481 3.43281 6.72215 1.94167 8.28186C0.763936 9.46693 0.389313 12.1676 0.389313 12.1676C0.389313 12.1676 0 15.336 0 18.5117V21.4818C0 24.6502 0.389313 27.8259 0.389313 27.8259C0.389313 27.8259 0.771281 30.5266 1.94167 31.7141C3.43281 33.2738 5.39162 33.2224 6.26574 33.3889C9.40229 33.6876 19.5881 33.7782 19.5881 33.7782C19.5881 33.7782 27.8224 33.7635 33.2998 33.3718C34.0661 33.2812 35.7336 33.2714 37.2247 31.7117C38.4025 30.5266 38.7844 27.8234 38.7844 27.8234C38.7844 27.8234 39.1737 24.6551 39.1737 21.4793V18.5093C39.1664 15.3409 38.7771 12.1652 38.7771 12.1652L38.7746 12.1676ZM15.5285 25.0835V14.0726L26.1109 19.5964L15.5285 25.0835Z" />
</svg>
