<svg width="40" height="40" viewBox="0 0 40 40" stroke="none" xmlns="http://www.w3.org/2000/svg">
<path d="M35.5564 32.0987V7.90113C35.5564 5.99989 33.9957 4.44434 32.091 4.44434H7.91074C5.92309 4.44434 4.44531 5.91866 4.44531 7.90113V32.0987C4.44531 34.0829 5.92309 35.5554 7.91074 35.5554H32.091C33.0082 35.5541 33.8875 35.1897 34.5369 34.542C35.1862 33.8943 35.5528 33.0158 35.5564 32.0987ZM28.9609 22.7774C28.9609 22.7774 30.9174 24.708 31.3996 25.6033C31.4135 25.6224 31.4186 25.6396 31.4238 25.6466C31.6191 25.975 31.6693 26.2342 31.5707 26.4243C31.4083 26.7406 30.8552 26.8996 30.6668 26.9135H27.2117C26.9698 26.9135 26.4685 26.8512 25.8601 26.4312C25.3935 26.1063 24.932 25.5688 24.4826 25.0451C23.812 24.2673 23.2312 23.5932 22.647 23.5932C22.5729 23.593 22.4993 23.6053 22.4293 23.6295C21.9851 23.7712 21.4216 24.4021 21.4216 26.0873C21.4216 26.6145 21.0068 26.9152 20.713 26.9152H19.1298C18.5905 26.9152 15.7819 26.7268 13.2947 24.1014C10.2423 20.8866 7.50111 14.4379 7.47692 14.3809C7.30408 13.9643 7.66186 13.7379 8.05074 13.7379H11.5421C12.0105 13.7379 12.1609 14.0214 12.268 14.2754C12.389 14.5641 12.8453 15.729 13.592 17.0392C14.807 19.1703 15.5554 20.0379 16.1517 20.0379C16.2632 20.0373 16.3727 20.0081 16.4698 19.9532C17.2493 19.5229 17.1041 16.7436 17.0695 16.1698C17.0695 16.0609 17.0678 14.9271 16.6703 14.3826C16.3833 13.9885 15.8977 13.8382 15.6038 13.7811C15.7236 13.616 15.8813 13.4821 16.0636 13.3905C16.5977 13.1243 17.5604 13.0863 18.5179 13.0863H19.0503C20.089 13.1001 20.3586 13.1675 20.7337 13.2626C21.4925 13.4441 21.508 13.9367 21.4406 15.6132C21.4216 16.0903 21.4009 16.6313 21.4009 17.2656C21.4009 17.4021 21.3957 17.5525 21.3957 17.708C21.3715 18.5653 21.3438 19.535 21.9488 19.9325C22.0271 19.9815 22.1174 20.0078 22.2098 20.0085C22.4206 20.0085 23.0515 20.0085 24.7609 17.0754C25.5127 15.7809 26.0917 14.253 26.1315 14.1389C26.1919 14.0156 26.2793 13.9075 26.3873 13.8226C26.4758 13.7766 26.5744 13.7535 26.6742 13.7552H30.7791C31.2285 13.7552 31.5327 13.8226 31.5898 13.9937C31.6883 14.2685 31.5707 15.1068 29.6954 17.6406L28.8606 18.7468C27.1599 20.973 27.1599 21.0871 28.9609 22.7774Z" />
</svg>
