<svg width="77" height="21" viewBox="0 0 77 21" xmlns="http://www.w3.org/2000/svg">
<path fill-rule="evenodd" clip-rule="evenodd" d="M8.44033 17.4466L8.41152 17.3883L0 12L2.99588 9.78641L5.47325 0L8.46914 2.21359L18.465 1.57282L17.3128 5.12621L21 14.534H17.284L17.2551 14.5631L9.56379 21L8.44033 17.4466Z" />
<path fill-rule="evenodd" clip-rule="evenodd" d="M8.44054 17.3546V17.4129L14.2595 14.5002L15.3541 14.5294H17.2553H17.2842L17.1689 13.6556L16.3623 8.03423L17.313 5.15073H17.2842L17.1977 5.12161L10.9179 4.01481L8.46934 2.20898V2.23811L7.72037 3.63617L5.44465 8.0051L3.11132 9.72355L2.99609 9.81093L7.51873 14.5002L8.44054 17.3546Z" fill="#ffffff"/>
<path d="M29.8022 14.6193C29.2681 14.6193 28.788 14.517 28.3619 14.3125C27.9386 14.1051 27.6005 13.821 27.3477 13.4602C27.0948 13.0994 26.9599 12.6875 26.9428 12.2244H28.2212C28.2525 12.5994 28.4187 12.9077 28.7198 13.1491C29.021 13.3906 29.3817 13.5114 29.8022 13.5114C30.1374 13.5114 30.4343 13.4347 30.6928 13.2812C30.9542 13.125 31.1587 12.9105 31.3065 12.6378C31.457 12.3651 31.5323 12.054 31.5323 11.7045C31.5323 11.3494 31.4556 11.0327 31.3022 10.7543C31.1488 10.4759 30.9371 10.2571 30.6673 10.098C30.4002 9.93892 30.0934 9.85795 29.7468 9.85511C29.4826 9.85511 29.217 9.90057 28.9499 9.99148C28.6829 10.0824 28.467 10.2017 28.3022 10.3494L27.0962 10.1705L27.5863 5.77273H32.3846V6.90199H28.6815L28.4045 9.34375H28.4556C28.6261 9.17898 28.8519 9.04119 29.1332 8.9304C29.4173 8.8196 29.7212 8.7642 30.0451 8.7642C30.5763 8.7642 31.0494 8.89062 31.4641 9.14347C31.8817 9.39631 32.2099 9.74148 32.4485 10.179C32.69 10.6136 32.8093 11.1136 32.8065 11.679C32.8093 12.2443 32.6815 12.7486 32.4229 13.1918C32.1673 13.6349 31.8121 13.9844 31.3576 14.2401C30.9059 14.4929 30.3874 14.6193 29.8022 14.6193ZM38.2759 14.6193V13.4602H38.8001C39.0188 13.4602 39.1992 13.4233 39.3413 13.3494C39.4862 13.2756 39.604 13.1761 39.695 13.0511C39.7887 12.9233 39.8668 12.7841 39.9293 12.6335L40.0529 12.3224L36.9847 5.77273H38.3825L40.6708 10.8182L42.7077 5.77273H44.0884L41.0714 12.9872C40.9435 13.277 40.7958 13.5455 40.6282 13.7926C40.4634 14.0398 40.2433 14.2401 39.9677 14.3935C39.6921 14.544 39.3271 14.6193 38.8725 14.6193H38.2759ZM50.7756 5.77273V6.90625H46.6506V14.5H45.3338V5.77273H50.7756ZM51.5991 14.5V13.358L51.8548 13.3494C52.2013 13.3409 52.4741 13.223 52.6729 12.9957C52.8746 12.7685 53.021 12.402 53.1119 11.8963C53.2056 11.3906 53.2681 10.7159 53.2994 9.87216L53.4485 5.77273H58.967V14.5H57.6673V6.8892H54.6886L54.5522 10.2216C54.5153 11.1562 54.4215 11.9418 54.271 12.5781C54.1204 13.2116 53.8647 13.6903 53.5039 14.0142C53.146 14.3381 52.636 14.5 51.9741 14.5H51.5991ZM68.4656 10.1364C68.4656 11.0682 68.2951 11.8693 67.9542 12.5398C67.6133 13.2074 67.146 13.7216 66.5522 14.0824C65.9613 14.4403 65.2894 14.6193 64.5366 14.6193C63.7809 14.6193 63.1062 14.4403 62.5124 14.0824C61.9215 13.7216 61.4556 13.206 61.1147 12.5355C60.7738 11.8651 60.6033 11.0653 60.6033 10.1364C60.6033 9.20455 60.7738 8.40483 61.1147 7.73722C61.4556 7.06676 61.9215 6.55256 62.5124 6.1946C63.1062 5.83381 63.7809 5.65341 64.5366 5.65341C65.2894 5.65341 65.9613 5.83381 66.5522 6.1946C67.146 6.55256 67.6133 7.06676 67.9542 7.73722C68.2951 8.40483 68.4656 9.20455 68.4656 10.1364ZM67.1616 10.1364C67.1616 9.42614 67.0465 8.82812 66.8164 8.34233C66.5891 7.85369 66.2766 7.48438 65.8789 7.23438C65.484 6.98153 65.0366 6.85511 64.5366 6.85511C64.0337 6.85511 63.5849 6.98153 63.19 7.23438C62.7951 7.48438 62.4826 7.85369 62.2525 8.34233C62.0252 8.82812 61.9116 9.42614 61.9116 10.1364C61.9116 10.8466 62.0252 11.446 62.2525 11.9347C62.4826 12.4205 62.7951 12.7898 63.19 13.0426C63.5849 13.2926 64.0337 13.4176 64.5366 13.4176C65.0366 13.4176 65.484 13.2926 65.8789 13.0426C66.2766 12.7898 66.5891 12.4205 66.8164 11.9347C67.0465 11.446 67.1616 10.8466 67.1616 10.1364ZM70.1072 14.5V5.77273H73.3033C73.9226 5.77273 74.4354 5.875 74.8416 6.07955C75.2479 6.28125 75.5518 6.5554 75.7536 6.90199C75.9553 7.24574 76.0561 7.63352 76.0561 8.06534C76.0561 8.42898 75.9893 8.7358 75.8558 8.9858C75.7223 9.23295 75.5433 9.43182 75.3189 9.58239C75.0973 9.73011 74.853 9.83807 74.5859 9.90625V9.99148C74.8757 10.0057 75.1584 10.0994 75.4339 10.2727C75.7124 10.4432 75.9425 10.6861 76.1243 11.0014C76.3061 11.3168 76.397 11.7003 76.397 12.152C76.397 12.598 76.2919 12.9986 76.0817 13.3537C75.8743 13.706 75.5533 13.9858 75.1186 14.1932C74.6839 14.3977 74.1286 14.5 73.4524 14.5H70.1072ZM71.424 13.3707H73.3246C73.9553 13.3707 74.407 13.2486 74.6797 13.0043C74.9524 12.7599 75.0888 12.4545 75.0888 12.0881C75.0888 11.8125 75.0192 11.5597 74.88 11.3295C74.7408 11.0994 74.5419 10.9162 74.2834 10.7798C74.0277 10.6435 73.7237 10.5753 73.3714 10.5753H71.424V13.3707ZM71.424 9.5483H73.1882C73.4837 9.5483 73.7493 9.49148 73.9851 9.37784C74.2237 9.2642 74.4126 9.10511 74.5518 8.90057C74.6939 8.69318 74.7649 8.44886 74.7649 8.16761C74.7649 7.80682 74.6385 7.50426 74.3857 7.25994C74.1328 7.01562 73.745 6.89347 73.2223 6.89347H71.424V9.5483Z" />
</svg>
