<svg width="150" height="330" viewBox="0 0 150 330" fill="none" xmlns="http://www.w3.org/2000/svg">
<g opacity="0.05">
<path d="M0.183594 115.172C0.183594 118.337 0.285706 121.625 0.387806 125.076C2.71568 198.322 29.6291 220.682 59.8915 234.568L63.0362 235.997L69.4685 238.917C90.9707 249.127 112.534 259.5 126.073 266.076C154.906 280.104 158.479 298.564 158.744 307.569C158.99 318.106 156.703 326.376 152.19 333.278C147.571 340.213 141.241 345.84 133.812 349.613C126.077 353.599 117.769 356.355 109.185 357.781C92.0652 360.831 74.5408 360.831 57.4207 357.781C48.8373 356.355 40.5288 353.599 32.7943 349.613C24.9725 345.852 18.182 340.246 13.0073 333.278C9.35662 327.955 7.23758 321.732 6.88133 315.288H0.183594C0.755352 344.774 5.10478 360.477 10.8836 373.811C17.0508 388.897 27.1482 402.055 40.125 411.915C52.852 421.206 68.2735 426.069 84.0279 425.76C101.058 425.76 115.624 421.288 127.727 412.344C139.829 403.4 149.086 390.835 155.498 374.648C161.923 358.476 165.136 339.635 165.136 318.126C165.136 315.267 165.136 303.485 165.136 300.034C162.828 226.788 135.915 204.428 105.653 190.542L102.508 189.092L90.256 183.579C70.8162 174.288 51.6623 164.997 39.3899 159.075C7.10598 143.372 6.718 122.646 6.718 115.192L0.183594 115.172Z" fill="black"/>
<path d="M0 298.93H6.51397V298.787C6.51397 281.961 20.032 266.87 39.7577 263.705C47.8203 262.352 56.1011 263.3 63.649 266.442C63.7511 266.442 63.8328 266.442 63.9349 266.442V261.418L0 232.218L0 298.93Z" fill="black"/>
<path d="M158.479 37.8619C157.009 53.524 143.961 67.1236 125.358 70.1049C117.302 71.459 109.028 70.5106 101.487 67.3687C101.392 67.3589 101.296 67.3589 101.201 67.3687V72.3919L165.156 101.531V37.7598L158.479 37.8619Z" fill="black"/>
<path d="M78.4336 -10.3699C78.0252 -16.4959 77.5759 -21.4172 77.045 -24.3372C75.003 -35.609 72.1646 -45.3085 67.8969 -52.9251C58.2382 -70.3025 47.191 -76.2038 39.8194 -76.0813C5.77938 -75.4483 0.388506 -17.1902 0.123047 7.88553L0.123047 24.7728C0.123047 27.8766 0.225159 31.1029 0.327259 34.4722C2.65513 107.719 29.5686 130.079 59.831 143.964L62.9757 145.414L69.4079 148.334C90.9101 158.544 112.474 168.897 126.012 175.472C158.316 191.195 158.684 211.901 158.684 219.375H165.198C165.198 216.21 165.198 212.922 165.198 209.492C162.89 136.225 135.977 113.885 105.715 99.9795L102.57 98.55L90.318 93.0163C70.8782 83.7457 51.7243 74.4342 39.4519 68.5124C7.16795 52.8094 6.90249 32.2466 6.77997 24.6299V23.6906C6.94333 0.697693 16.4998 -12.6365 37.614 -12.6365C54.8485 -12.6365 73.9616 2.92342 74.7784 40.6187H81.4761C81.4761 40.6187 81.1494 27.3865 81.6191 21.3218C82.9668 4.02608 96.0968 -9.94115 118.681 -10.1658C132.363 -10.2883 154.212 -1.9978 158.235 21.7098H165.198C165.198 5.37379 165.014 -15.0461 163.687 -22.9894C161.899 -33.9569 158.039 -44.4836 152.313 -54.0073C141.715 -71.3643 129.095 -76.1017 121.009 -75.9792C91.0327 -75.5912 81.2719 -38.1411 78.4336 -10.3699Z" fill="black"/>
</g>
</svg>
