<svg width="141" height="47" viewBox="0 0 141 47" fill="none" xmlns="http://www.w3.org/2000/svg">
<path d="M87.2544 0.0517578C86.3652 0.0517578 85.4417 0.0804281 84.4722 0.109095C63.8958 0.762699 57.6144 8.31927 53.7137 16.8161L53.3122 17.6991L52.4918 19.5051C49.6236 25.5423 46.7096 31.5967 44.8624 35.398C40.9216 43.4935 35.7359 44.4968 33.2061 44.5713C30.2461 44.6401 27.9229 43.998 25.984 42.7309C24.0357 41.4341 22.4551 39.6568 21.3949 37.5709C20.2752 35.3993 19.5011 33.0665 19.1004 30.6565C18.2437 25.8496 18.2437 20.9292 19.1004 16.1224C19.5011 13.7124 20.2752 11.3796 21.3949 9.20794C22.4517 7.0118 24.0265 5.10521 25.984 3.65231C27.4793 2.62729 29.2274 2.03233 31.0378 1.9323V0.0517578C22.7544 0.212292 18.3431 1.43349 14.5973 3.05604C10.3593 4.78762 6.6631 7.62268 3.89319 11.2662C1.28321 14.8396 -0.0829649 19.1696 0.00390032 23.593C0.00390032 28.3746 1.26017 32.4644 3.77271 35.8624C6.28525 39.2603 9.81505 41.8595 14.3621 43.6597C18.9053 45.4638 24.1981 46.3659 30.2404 46.3659C31.0435 46.3659 34.3534 46.3659 35.3228 46.3659C55.8993 45.718 62.1806 38.1614 66.0813 29.6646L66.4886 28.7816L68.0375 25.3416C70.6475 19.8835 73.2576 14.5056 74.9211 11.0598C79.3324 1.99538 85.1548 1.88644 87.2486 1.88644L87.2544 0.0517578Z" fill="#000000"/>
<path d="M35.6328 0V1.82895H35.673C40.3998 1.82895 44.6389 5.62443 45.5281 11.1629C45.9083 13.4266 45.6419 15.7517 44.7594 17.8709C44.7594 17.8996 44.7594 17.9225 44.7594 17.9512H46.1706L54.3736 0H35.6328Z" fill="#000000"/>
<path d="M108.972 44.4966C104.572 44.0838 100.752 40.4202 99.9142 35.1971C99.5339 32.9352 99.8003 30.612 100.683 28.4948C100.686 28.4681 100.686 28.4412 100.683 28.4146H99.2718L91.0859 46.3715H109.001L108.972 44.4966Z" fill="#000000"/>
<path d="M122.523 22.0216C124.243 21.907 125.626 21.7808 126.446 21.6318C129.613 21.0584 132.337 20.2615 134.477 19.0632C139.359 16.3513 141.017 13.2496 140.982 11.1798C140.804 1.62232 124.438 0.108713 117.394 0.0341797H112.65C111.778 0.0341797 110.872 0.06285 109.925 0.0915169C89.349 0.745121 83.0676 8.30169 79.1669 16.7985L78.7596 17.6815L77.9393 19.4875C75.0711 25.5247 72.1628 31.5792 70.3157 35.3804C65.8986 44.4506 60.0819 44.5538 57.9824 44.5538V46.3827C58.8716 46.3827 59.7951 46.3827 60.7588 46.3827C81.341 45.7348 87.6166 38.1783 91.5231 29.6814L91.9247 28.7985L93.4792 25.3585C96.0835 19.9003 98.6993 14.5224 100.363 11.0766C104.774 2.0122 110.551 1.93766 112.69 1.90326H112.954C119.413 1.94913 123.159 4.63233 123.159 10.5606C123.159 15.3996 118.788 20.766 108.199 20.9954V22.8759C108.199 22.8759 111.916 22.7842 113.62 22.916C118.478 23.2945 122.402 26.981 122.465 33.3221C122.5 37.1635 120.171 43.2982 113.511 44.4276V46.3827C118.1 46.3827 123.836 46.3311 126.068 45.9585C129.149 45.4564 132.106 44.3726 134.781 42.765C139.657 39.7893 140.988 36.2461 140.954 33.9757C140.845 25.5591 130.324 22.8186 122.523 22.0216Z" fill="#000000"/>
</svg>
