<svg width="52" height="52" viewBox="0 0 52 52" fill="none" xmlns="http://www.w3.org/2000/svg">
<path fill-rule="evenodd" clip-rule="evenodd" d="M26 4.33594C15.2305 4.33594 6.5 13.0664 6.5 23.8359C6.5 29.6946 9.55192 34.7895 12.9478 38.6718C16.3683 42.5819 20.3606 45.5189 22.7368 47.0997C24.7238 48.4218 27.2762 48.4218 29.2632 47.0997C31.6394 45.5189 35.6317 42.5819 39.0522 38.6718C42.448 34.7895 45.5 29.6946 45.5 23.8359C45.5 13.0664 36.7696 4.33594 26 4.33594ZM21.6667 23.8359C21.6667 21.4427 23.6067 19.5026 26 19.5026C28.3933 19.5026 30.3333 21.4427 30.3333 23.8359C30.3333 26.2292 28.3933 28.1693 26 28.1693C23.6067 28.1693 21.6667 26.2292 21.6667 23.8359ZM26 15.1693C21.2135 15.1693 17.3333 19.0495 17.3333 23.8359C17.3333 28.6223 21.2135 32.5026 26 32.5026C30.7864 32.5026 34.6667 28.6223 34.6667 23.8359C34.6667 19.0495 30.7864 15.1693 26 15.1693Z" fill="#5BC357"/>
</svg>
